#N canvas 0 0 954 738 12;
#X declare -lib Gem;
#X text 20 10 Pure Data Workshop at 97KOBOLAB;
#X text 132 31 CRSRCRSRRR 2026;
#X obj 28 374 cnv 20 300 150 empty empty empty 20 12 0 12 #dfdfdf #404040 0;
#X text 32 348 the concept of action;
#X obj 51 382 bng 20 250 50 0 empty empty empty 0 -10 0 12 #fcfcfc #000000 #000000;
#X obj 50 454 bng 20 250 50 0 empty empty empty 0 -10 0 12 #fcfcfc #000000 #000000;
#X obj 50 483 print;
#X msg 121 426 1;
#X obj 121 455 + 1;
#X floatatom 121 486 5 0 0 0 - - - 0;
#X msg 181 425 hello;
#X obj 181 455 print greetings;
#X text 78 382 bang;
#N canvas 0 50 450 250 (subpatch) 0;
#X array scope 64 float 1;
#A 0 0 0 0 0 0 0 0 0 0 0 0 0 0 0 0 0 0 0 0 0 0 0 0 0 0 0 0 0 0 0 0 0 0 0 0 0 0 0 0 0 0 0 0 0 0 0 0 0 0 0 0 0 0 0 0 0 0 0 0 0 0 0 0 0;
#A color 0;
#A width 1;
#X coords 0 1 63 -1 100 100 1 0 0;
#X restore 650 375 graph;
#X text 756 367 1;
#X text 752 464 -1;
#X text 756 415 0;
#X text 349 349 primitive audio generators;
#X obj 345 375 cnv 20 300 150 empty empty empty 20 12 0 12 #dfdfdf #404040 0;
#X obj 363 432 throw~ toscope;
#X obj 531 387 noise~;
#X obj 191 116;
#X text 34 79 building blocks of a patch(program);
#X obj 235 116 +;
#X text 46 116 object - ctrl/cmd 1;
#X msg 192 149;
#X msg 234 149 1;
#X msg 274 149 0.5;
#X msg 317 149 hello;
#X msg 372 150 this is a list;
#X text 39 149 message - ctrl/cmd 2;
#X floatatom 192 183 5 0 0 0 - - - 0;
#X text 46 182 number - ctrl/cmd 3;
#X listbox 193 211 20 0 0 0 - - - 0;
#X text 12 212 list/symbol - ctrl/cmd 4;
#X text 40 242 comment - ctrl/cmd 5;
#X text 191 241 comment;
#X text 255 241 you can put some notes to self here:);
#N canvas 0 0 954 738 basic-synthesis 0;
#X text 53 71 vca/ volume shaping;
#X obj 324 401 *~;
#X obj 342 55 vsl 20 170 0 1 0 0 empty empty empty 0 -9 0 12 #fcfcfc #000000 #000000 0 1;
#X obj 342 314 line~;
#X msg 342 238 \$1 100;
#X obj 162 227 osc~ 440;
#X obj 316 468 dac~ 1 2;
#X obj 325 434 *~ 0.1;
#X text 379 430 volume protection;
#X text 378 159 < goto this number with 100ms ramp;
#X text 163 197 source;
#X text 352 398 "vca";
#X msg 433 237 1 \, 0 100;
#X text 504 235 < goto amplitude "1" and ranp down to 0 taking 100ms;
#X text 317 497 output to your speakers/headphones;
#X connect 1 0 7 0;
#X connect 2 0 4 0;
#X connect 3 0 1 1;
#X connect 4 0 3 0;
#X connect 5 0 1 0;
#X connect 7 0 6 0;
#X connect 7 0 6 1;
#X connect 12 0 3 0;
#X restore 647 251 pd basic-synthesis;
#N canvas 0 0 954 738 sequencer 0;
#X floatatom 87 127 5 0 0 0 - - - 0;
#X floatatom 87 165 5 0 0 0 - - - 0;
#X msg 46 85 5;
#X msg 87 83 set 7;
#X obj 146 81 bng 20 250 50 0 empty empty empty 0 -10 0 12 #fcfcfc #000000 #000000;
#X obj 240 62 metro 1000;
#X obj 240 26 tgl 20 0 empty empty empty 0 -10 0 12 #fcfcfc #000000 #000000 0 1;
#X obj 240 142 +;
#X msg 240 114 1;
#X floatatom 240 176 5 0 0 0 - - - 0;
#X obj 240 212 mod 4;
#X obj 240 322 bng 20 250 50 0 empty empty empty 0 -10 0 12 #fcfcfc #000000 #000000;
#X obj 273 322 bng 20 250 50 0 empty empty empty 0 -10 0 12 #fcfcfc #000000 #000000;
#X obj 308 320 bng 20 250 50 0 empty empty empty 0 -10 0 12 #fcfcfc #000000 #000000;
#X obj 346 322 bng 20 250 50 0 empty empty empty 0 -10 0 12 #fcfcfc #000000 #000000;
#X floatatom 266 245 5 0 0 0 - - - 0;
#X obj 355 96 /;
#X obj 355 59 swap 60000;
#X obj 355 127 / 4;
#X floatatom 355 161 5 0 0 0 - - - 0;
#X text 398 162 << 16th note;
#X floatatom 456 93 5 0 0 0 - - - 0;
#X floatatom 410 93 5 0 0 0 - - - 0;
#X obj 53 248 swap 500;
#X floatatom 53 283 5 0 0 0 - - - 0;
#X floatatom 106 282 5 0 0 0 - - - 0;
#X msg 53 218 600;
#X obj 53 325 print comeout;
#X text 355 260 basic sequencer;
#X text 356 284 "clicks" somethinf for us;
#X obj 218 406 simplekick;
#X obj 217 600 dac~ 1 2;
#X obj 332 407 simpleblip;
#X obj 240 284 sel 0 1 2 3;
#X msg 355 28 120;
#X obj 556 405 samp1~;
#X obj 218 572 *~ 0.3;
#X connect 0 0 1 0;
#X connect 2 0 0 0;
#X connect 3 0 0 0;
#X connect 4 0 0 0;
#X connect 5 0 8 0;
#X connect 6 0 5 0;
#X connect 7 0 9 0;
#X connect 8 0 7 0;
#X connect 9 0 7 1;
#X connect 9 0 10 0;
#X connect 10 0 15 0;
#X connect 10 0 33 0;
#X connect 11 0 30 0;
#X connect 13 0 32 0;
#X connect 16 0 18 0;
#X connect 17 0 16 0;
#X connect 17 0 22 0;
#X connect 17 1 16 1;
#X connect 17 1 21 0;
#X connect 18 0 19 0;
#X connect 19 0 5 1;
#X connect 23 0 24 0;
#X connect 23 1 25 0;
#X connect 24 0 27 0;
#X connect 25 0 27 0;
#X connect 26 0 23 0;
#X connect 30 0 36 0;
#X connect 32 0 36 0;
#X connect 33 0 11 0;
#X connect 33 1 12 0;
#X connect 33 2 13 0;
#X connect 33 3 14 0;
#X connect 34 0 17 0;
#X connect 36 0 31 0;
#X connect 36 0 31 1;
#X restore 647 276 pd sequencer;
#X obj 363 387 osc~ 797;
#X obj 436 387 phasor~ 797;
#X text 474 431 connect to see >>;
#X obj 368 498 tabwrite~ scope;
#X obj 368 465 bang~;
#X obj 412 466 catch~ toscope;
#N canvas 0 0 954 738 gem 0;
#X obj 25 22 declare -lib Gem;
#X text 151 24 << load Gem lib on start;
#X obj 418 91 gemhead;
#X obj 418 165 square;
#X obj 28 120 gemwin;
#X msg 45 80 destroy;
#X msg 28 52 create \, 1;
#X text 106 52 create and start rendering;
#X obj 35 221 gemhead;
#X obj 36 269 bang;
#X obj 36 301 bng 20 250 50 0 empty empty empty 0 -10 0 12 #fcfcfc #000000 #000000;
#X text 76 301 gemhead bang every frame;
#X obj 418 54 tgl 20 0 empty empty empty 0 -10 0 12 #fcfcfc #000000 #000000 0 1;
#X text 419 29 toggle to start/stop rendering the chain;
#X obj 440 274 gemhead;
#X obj 440 447 rotateXYZ;
#X obj 574 482 line;
#X obj 600 351 bng 20 250 50 0 empty empty empty 0 -10 0 12 #fcfcfc #000000 #000000;
#X obj 662 482 line;
#X obj 665 398 random 1000;
#X obj 751 483 line;
#X obj 754 399 random 1000;
#X obj 611 278 tgl 20 0 empty empty empty 0 -10 0 12 #fcfcfc #000000 #000000 0 1;
#X obj 173 215 gemwin;
#X msg 190 175 destroy;
#X msg 173 147 create \, 1 \, frame 60;
#X obj 606 308 metro 10000;
#X obj 577 398 random 1000;
#X msg 575 454 \$1 10000;
#X msg 663 454 \$1 10000;
#X msg 752 455 \$1 10000;
#X obj 440 354 gemrepeat 200;
#X obj 574 427 / 100;
#X obj 662 427 / 100;
#X obj 751 428 / 100;
#X obj 445 315 ortho;
#X msg 501 292 compat 0;
#X obj 442 489 square \; draw line;
#X obj 440 391 scale 1.01;
#X obj 753 357 line;
#X msg 754 329 \$1 10000;
#X obj 756 273 random 300;
#X connect 2 0 3 0;
#X connect 5 0 4 0;
#X connect 6 0 4 0;
#X connect 9 0 10 0;
#X connect 12 0 2 0;
#X connect 14 0 35 0;
#X connect 15 0 37 0;
#X connect 16 0 15 1;
#X connect 17 0 19 0;
#X connect 17 0 21 0;
#X connect 17 0 27 0;
#X connect 17 0 41 0;
#X connect 18 0 15 2;
#X connect 19 0 33 0;
#X connect 20 0 15 3;
#X connect 21 0 34 0;
#X connect 22 0 26 0;
#X connect 24 0 23 0;
#X connect 25 0 23 0;
#X connect 26 0 17 0;
#X connect 27 0 32 0;
#X connect 28 0 16 0;
#X connect 29 0 18 0;
#X connect 30 0 20 0;
#X connect 31 0 38 0;
#X connect 32 0 28 0;
#X connect 33 0 29 0;
#X connect 34 0 30 0;
#X connect 35 0 31 0;
#X connect 36 0 35 0;
#X connect 38 0 15 0;
#X connect 39 0 31 1;
#X connect 40 0 39 0;
#X connect 41 0 40 0;
#X restore 648 301 pd gem;
#N canvas 0 0 954 738 abstractions 0;
#X obj 146 209 nkick;
#X obj 148 465 dac~ 1 2;
#X obj 156 69 bng 20 250 50 0 empty empty empty 0 -10 0 12 #fcfcfc #000000 #000000;
#X obj 198 148 random 100;
#X obj 195 172 / 100;
#X obj 280 144 random 100;
#X obj 277 168 / 100;
#X obj 360 144 random 100;
#X obj 357 168 / 100;
#X obj 442 140 random 100;
#X obj 439 164 / 100;
#X obj 546 373 mxr;
#X obj 343 429 skew~;
#X obj 428 293 fold~;
#X obj 636 100 mtx;
#X connect 0 0 1 0;
#X connect 0 0 1 1;
#X connect 2 0 0 0;
#X connect 2 0 3 0;
#X connect 2 0 5 0;
#X connect 2 0 7 0;
#X connect 2 0 9 0;
#X connect 3 0 4 0;
#X connect 4 0 0 1;
#X connect 5 0 6 0;
#X connect 6 0 0 2;
#X connect 7 0 8 0;
#X connect 8 0 0 3;
#X connect 9 0 10 0;
#X connect 10 0 0 4;
#X restore 648 327 pd abstractions;
#X connect 5 0 6 0;
#X connect 7 0 8 0;
#X connect 8 0 9 0;
#X connect 10 0 11 0;
#X connect 44 0 43 0;
#X connect 45 0 43 0;
