#N canvas 0 15 749 723 12;
#X obj 348 313 -~;
#X obj 325 455 -~;
#X obj 359 411 wrap~;
#X obj 326 483 clip~ -1 0;
#X obj 326 512 *~ -1;
#X obj 326 596 outlet~;
#X obj 326 540 abs~;
#X obj 435 311 -~;
#X obj 436 374 *~ -1;
#X obj 435 403 +~ 1;
#X obj 434 344 abs~;
#X obj 435 492 clip~ 0 1;
#X obj 435 461 -~;
#X obj 455 435 wrap~;
#X obj 333 256 inlet~;
#X obj 419 257 inlet~;
#X connect 0 0 2 0;
#X connect 0 0 1 0;
#X connect 1 0 3 0;
#X connect 2 0 1 1;
#X connect 3 0 4 0;
#X connect 4 0 6 0;
#X connect 6 0 5 0;
#X connect 7 0 10 0;
#X connect 8 0 9 0;
#X connect 9 0 12 0;
#X connect 9 0 13 0;
#X connect 10 0 8 0;
#X connect 11 0 5 0;
#X connect 12 0 11 0;
#X connect 13 0 12 1;
#X connect 14 0 0 0;
#X connect 14 0 7 0;
#X connect 15 0 0 1;
#X connect 15 0 7 1;
