#N canvas 0 15 749 723 12;
#X obj 348 313 -~;
#X obj 325 455 -~;
#X obj 359 411 wrap~;
#X obj 326 483 clip~ -1 0;
#X obj 326 512 *~ -1;
#X obj 417 254 inlet~;
#X obj 353 248 inlet~;
#X obj 326 556 outlet~;
#X connect 0 0 2 0;
#X connect 0 0 1 0;
#X connect 1 0 3 0;
#X connect 2 0 1 1;
#X connect 3 0 4 0;
#X connect 4 0 7 0;
#X connect 5 0 0 1;
#X connect 6 0 0 0;
