#N canvas 0 19 749 717 12;
#X obj 270 299 *~;
#X obj 309 300 *~;
#X obj 327 234 *~ -1;
#X obj 327 260 +~ 1;
#X obj 385 301 *~ -1;
#X obj 385 330 +~ 1;
#X obj 387 238 *~ -1;
#X obj 386 263 +~ 1;
#X obj 287 157 inlet~;
#X obj 388 155 inlet~;
#X obj 258 385 outlet~;
#X obj 322 384 outlet~;
#X obj 386 384 outlet~;
#X connect 0 0 10 0;
#X connect 1 0 12 0;
#X connect 2 0 3 0;
#X connect 3 0 1 1;
#X connect 4 0 5 0;
#X connect 5 0 11 0;
#X connect 6 0 7 0;
#X connect 7 0 4 0;
#X connect 7 0 0 0;
#X connect 7 0 1 0;
#X connect 8 0 0 1;
#X connect 8 0 2 0;
#X connect 9 0 6 0;
