#N canvas 0 0 954 738 12;
#X obj 242 463 vline~;
#X obj 354 282 t f f;
#X obj 242 162 trigger float float;
#X obj 315 494 expr 1000./$f1;
#X msg 242 408 0;
#X obj 242 190 != 0;
#X obj 367 441 v D_\$0;
#X obj 404 254 r S_\$0;
#X obj 365 570 expr 1000./$f1;
#X obj 365 525 r A_\$0;
#X obj 315 440 v R_\$0;
#X obj 353 337 pack f f f;
#X obj 420 309 r A_\$0;
#X msg 353 366 \$1 \, \$2 0 \$3;
#X obj 354 254 f;
#X obj 242 220 sel 0 1;
#X obj 386 309 *;
#X floatatom 365 600 6 0 0 0 - - - 0;
#X floatatom 315 600 6 0 0 0 - - - 0;
#X floatatom 315 470 6 0 0 0 - - - 0;
#X floatatom 365 547 6 0 0 0 - - - 0;
#X floatatom 404 280 6 0 0 0 - - - 0;
#X obj 242 628 slop~, f 18;
#X obj 494 191 v D_\$0;
#X obj 563 191 s S_\$0;
#X obj 416 219 s A_\$0;
#X obj 632 191 v R_\$0;
#X obj 557 123 clip 0 1;
#X obj 347 50 inlet;
#X obj 437 40 inlet;
#X obj 585 11 inlet;
#X obj 646 78 inlet;
#X obj 242 101 / 127;
#X obj 237 59 inlet;
#X obj 510 9 loadbang;
#X obj 246 670 outlet~;
#X msg 630 42 2000;
#X msg 489 45 5;
#X msg 541 46 150;
#X msg 591 56 0.5;
#X obj 386 102 moses 2;
#X obj 464 107 moses 2;
#X connect 0 0 22 0;
#X connect 1 0 11 0;
#X connect 1 1 16 0;
#X connect 2 0 5 0;
#X connect 2 1 14 1;
#X connect 3 0 18 0;
#X connect 4 0 0 0;
#X connect 5 0 15 0;
#X connect 6 0 19 0;
#X connect 7 0 21 0;
#X connect 8 0 17 0;
#X connect 9 0 20 0;
#X connect 10 0 19 0;
#X connect 11 0 13 0;
#X connect 12 0 11 2;
#X connect 13 0 0 0;
#X connect 14 0 1 0;
#X connect 15 0 10 0;
#X connect 15 0 4 0;
#X connect 15 1 6 0;
#X connect 15 1 14 0;
#X connect 16 0 11 1;
#X connect 17 0 22 5;
#X connect 18 0 22 3;
#X connect 19 0 3 0;
#X connect 20 0 8 0;
#X connect 21 0 16 1;
#X connect 22 0 35 0;
#X connect 27 0 24 0;
#X connect 28 0 40 0;
#X connect 29 0 41 0;
#X connect 30 0 27 0;
#X connect 31 0 26 0;
#X connect 32 0 2 0;
#X connect 33 0 32 0;
#X connect 34 0 37 0;
#X connect 34 0 38 0;
#X connect 34 0 39 0;
#X connect 34 0 36 0;
#X connect 36 0 26 0;
#X connect 37 0 40 0;
#X connect 38 0 41 0;
#X connect 39 0 27 0;
#X connect 40 1 25 0;
#X connect 41 1 23 0;
