#N canvas 0 0 749 738 12;
#X obj 222 281 hradio 20 1 0 3 mode\$0 empty empty 0 -10 0 12 #fcfcfc #000000 #000000 0;
#X obj 104 104 hradio 20 1 0 8 steps\$0 empty empty 0 -10 0 12 #fcfcfc #000000 #000000 0;
#X obj 325 128 vsl 20 170 0 255 0 0 empty tmout\$0 empty 0 -9 0 12 #fcfcfc #000000 #000000 0 1;
#X obj 287 128 vsl 20 170 0 1 0 0 maintrim\$0 empty empty 0 -9 0 12 #000000 #ffffff #000000 0 1;
#X floatatom 310 104 5 0 0 0 - - - 12;
#X obj 125 237 cnv 15 15 15 empty bit2\$0 empty 20 12 0 12 #bcbcbc #404040 0;
#X obj 143 237 cnv 15 15 15 empty bit3\$0 empty 20 12 0 12 #bcbcbc #404040 0;
#X obj 161 237 cnv 15 15 15 empty bit4\$0 empty 20 12 0 12 #fc2828 #404040 0;
#X obj 179 237 cnv 15 15 15 empty bit5\$0 empty 20 12 0 12 #bcbcbc #404040 0;
#X obj 197 237 cnv 15 15 15 empty bit6\$0 empty 20 12 0 12 #fc2828 #404040 0;
#X obj 215 237 cnv 15 15 15 empty bit7\$0 empty 20 12 0 12 #bcbcbc #404040 0;
#X obj 233 237 cnv 15 15 15 empty bit8\$0 empty 20 12 0 12 #fc2828 #404040 0;
#X obj 217 396 &&;
#X obj 284 397 &&;
#X obj 217 436 sel 0 1;
#X obj 217 416 change;
#X msg 217 456 color 43;
#X obj 284 437 sel 0 1;
#X obj 284 417 change;
#X msg 284 457 color 43;
#X msg 217 476 color 50;
#X msg 284 477 color 50;
#X obj 217 496 s and1\$0;
#X obj 284 497 s and2\$0;
#X obj 101 242 cnv 5 20 5 empty empty empty 20 12 0 12 #000000 #404040 0;
#X obj 113 278 cnv 5 40 5 empty empty empty 20 12 0 12 #000000 #404040 0;
#X obj 107 273 cnv 15 15 15 empty and2\$0 empty 20 12 0 12 #bcbcbc #404040 0;
#X obj 110 130 vsl 10 100 0 1 0 0 trim1\$0 empty empty 0 -9 0 12 #fcfcfc #000000 #000000 0 1;
#X obj 128 130 vsl 10 100 0 1 0 0 trim2\$0 empty empty 0 -9 0 12 #fcfcfc #000000 #000000 0 1;
#X obj 146 130 vsl 10 100 0 1 0 0 trim3\$0 empty empty 0 -9 0 12 #fcfcfc #000000 #000000 0 1;
#X obj 164 130 vsl 10 100 0 1 0 0 trim4\$0 empty empty 0 -9 0 12 #fcfcfc #000000 #000000 0 1;
#X obj 183 130 vsl 10 100 0 1 0 0 trim5\$0 empty empty 0 -9 0 12 #fcfcfc #000000 #000000 0 1;
#X obj 201 130 vsl 10 100 0 1 0 0 trim6\$0 empty empty 0 -9 0 12 #fcfcfc #000000 #000000 0 1;
#X obj 218 130 vsl 10 100 0 1 0 0 trim7\$0 empty empty 0 -9 0 12 #fcfcfc #000000 #000000 0 1;
#X obj 235 130 vsl 10 100 0 1 0 0 trim8\$0 empty empty 0 -9 0 12 #fcfcfc #000000 #000000 0 1;
#X obj 173 260 cnv 5 50 5 empty empty empty 20 12 0 12 #000000 #404040 0;
#X obj 161 255 cnv 15 15 15 empty and3\$0 empty 20 12 0 12 #bcbcbc #404040 0;
#X obj 351 396 &&;
#X obj 351 436 sel 0 1;
#X obj 351 416 change;
#X msg 351 456 color 43;
#X msg 351 476 color 50;
#X obj 351 496 s and3\$0;
#X obj 108 305 hsl 235 20 0 1 0 0 scan\$0 empty scan -2 -10 0 12 #fcfcfc #000000 #000000 0 1;
#X obj 63 37 loadbang;
#X msg 80 63 16;
#X msg 63 203 0.5;
#X msg 64 162 1;
#X msg 62 118 0.5;
#X obj 99 414 outlet;
#X obj 149 413 outlet;
#X text 145 327 gate;
#X floatatom 308 327 5 0 0 0 - - - 0;
#X obj 99 394 / 255;
#X obj 107 237 cnv 15 15 15 empty bit1\$0 empty 20 12 0 12 #fc2828 #404040 0;
#X obj 412 519 outlet;
#X text 191 328 &&1;
#X text 229 328 &&2;
#X text 268 328 &&3;
#X obj 217 516 outlet;
#X obj 284 517 outlet;
#X obj 351 516 outlet;
#X text 104 327 mod;
#X obj 113 260 cnv 5 20 5 empty empty empty 20 12 0 12 #000000 #404040 0;
#X obj 107 255 cnv 15 15 15 empty and1\$0 empty 20 12 0 12 #bcbcbc #404040 0;
#X text 225 261 0--n--1;
#X text 267 103 steps;
#N canvas 0 0 749 738 leds 0;
#X obj 81 247 sel 0 1;
#X obj 81 227 change;
#X msg 81 267 color 43;
#X obj 147 247 sel 0 1;
#X obj 147 227 change;
#X msg 147 267 color 43;
#X obj 214 247 sel 0 1;
#X obj 214 227 change;
#X msg 214 267 color 43;
#X obj 279 247 sel 0 1;
#X obj 279 227 change;
#X msg 279 267 color 43;
#X obj 345 247 sel 0 1;
#X obj 345 227 change;
#X msg 345 267 color 43;
#X obj 411 247 sel 0 1;
#X obj 411 227 change;
#X msg 411 267 color 43;
#X obj 476 247 sel 0 1;
#X obj 476 227 change;
#X msg 476 267 color 43;
#X obj 542 247 sel 0 1;
#X obj 542 227 change;
#X msg 542 267 color 43;
#X obj 81 307 s bit1\$0;
#X obj 147 307 s bit2\$0;
#X obj 214 307 s bit3\$0;
#X obj 279 307 s bit4\$0;
#X obj 542 307 s bit8\$0;
#X obj 476 307 s bit7\$0;
#X obj 411 307 s bit6\$0;
#X obj 345 307 s bit5\$0;
#X msg 81 287 color 50;
#X msg 147 287 color 50;
#X msg 214 287 color 50;
#X msg 279 287 color 50;
#X msg 345 287 color 50;
#X msg 411 287 color 50;
#X msg 476 287 color 50;
#X msg 542 287 color 50;
#X obj 81 207 r raw1\$0;
#X obj 147 207 r raw2\$0;
#X obj 214 207 r raw3\$0;
#X obj 279 207 r raw4\$0;
#X obj 345 207 r raw5\$0;
#X obj 411 207 r raw6\$0;
#X obj 476 207 r raw7\$0;
#X obj 542 207 r raw8\$0;
#X connect 0 0 32 0;
#X connect 0 1 2 0;
#X connect 1 0 0 0;
#X connect 2 0 24 0;
#X connect 3 0 33 0;
#X connect 3 1 5 0;
#X connect 4 0 3 0;
#X connect 5 0 25 0;
#X connect 6 0 34 0;
#X connect 6 1 8 0;
#X connect 7 0 6 0;
#X connect 8 0 26 0;
#X connect 9 0 35 0;
#X connect 9 1 11 0;
#X connect 10 0 9 0;
#X connect 11 0 27 0;
#X connect 12 0 36 0;
#X connect 12 1 14 0;
#X connect 13 0 12 0;
#X connect 14 0 31 0;
#X connect 15 0 37 0;
#X connect 15 1 17 0;
#X connect 16 0 15 0;
#X connect 17 0 30 0;
#X connect 18 0 38 0;
#X connect 18 1 20 0;
#X connect 19 0 18 0;
#X connect 20 0 29 0;
#X connect 21 0 39 0;
#X connect 21 1 23 0;
#X connect 22 0 21 0;
#X connect 23 0 28 0;
#X connect 32 0 24 0;
#X connect 33 0 25 0;
#X connect 34 0 26 0;
#X connect 35 0 27 0;
#X connect 36 0 31 0;
#X connect 37 0 30 0;
#X connect 38 0 29 0;
#X connect 39 0 28 0;
#X connect 40 0 1 0;
#X connect 41 0 4 0;
#X connect 42 0 7 0;
#X connect 43 0 10 0;
#X connect 44 0 13 0;
#X connect 45 0 16 0;
#X connect 46 0 19 0;
#X connect 47 0 22 0;
#X restore 386 178 pd leds;
#X obj 149 393 r raw1\$0;
#X obj 284 357 r raw1\$0;
#X obj 284 377 r raw3\$0;
#X obj 351 356 r raw4\$0;
#X obj 351 376 r raw7\$0;
#X obj 217 356 r raw1\$0;
#X obj 217 376 r raw2\$0;
#X obj 354 305 r volts\$0;
#X obj 306 73 r stepsind\$0;
#N canvas 0 0 749 738 gut 0;
#X obj 581 429 i;
#X obj 606 429 i;
#X obj 631 429 i;
#X obj 656 429 i;
#X obj 681 429 i;
#X obj 706 429 i;
#X obj 731 429 i;
#X obj 756 429 i;
#X obj 781 429 i;
#X obj 806 429 i;
#X obj 831 429 i;
#X obj 856 429 i;
#X obj 881 429 i;
#X obj 906 429 i;
#X obj 931 429 i;
#X obj 956 429 i;
#X obj 581 409 t f b b b b b b b b b b b b b b b, f 57;
#X obj 627 232 i;
#X obj 627 292 >=;
#X obj 581 212 spigot;
#X obj 641 212 spigot;
#X obj 701 212 spigot;
#X obj 761 212 spigot;
#X obj 821 212 spigot;
#X obj 881 212 spigot;
#X obj 941 212 spigot;
#X obj 1001 212 spigot;
#X obj 1061 212 spigot;
#X obj 1128 212 spigot;
#X obj 1195 212 spigot;
#X obj 1262 212 spigot;
#X obj 1329 212 spigot;
#X obj 1396 212 spigot;
#X obj 1463 212 spigot;
#X obj 581 192 == 1;
#X obj 641 192 == 2;
#X obj 701 192 == 3;
#X obj 761 192 == 4;
#X obj 821 192 == 5;
#X obj 881 192 == 6;
#X obj 941 192 == 7;
#X obj 1001 192 == 8;
#X obj 1061 192 == 9;
#X obj 1128 192 == 10;
#X obj 1195 192 == 11;
#X obj 1262 192 == 12;
#X obj 1329 192 == 13;
#X obj 1396 192 == 14;
#X obj 1463 192 == 15;
#X obj 627 352 spigot;
#X obj 581 352 spigot;
#X obj 581 389 i;
#X obj 673 352 spigot;
#X obj 581 332 == 0;
#X obj 627 332 == 1;
#X obj 673 332 == 2;
#X msg 581 312 0;
#X msg 673 312 1;
#X obj 627 252 t f b;
#X obj 627 312 ==;
#X obj 1215 267 * 128;
#X obj 1155 267 * 64;
#X obj 1095 267 * 32;
#X obj 1215 287 +;
#X obj 1155 287 +;
#X obj 1095 287 +;
#X obj 1035 287 +;
#X obj 975 287 +;
#X obj 915 287 +;
#X obj 1035 267 * 16;
#X obj 975 267 * 8;
#X obj 915 267 * 4;
#X obj 855 267 * 2;
#X obj 855 287 +;
#X obj 855 307 *;
#X obj 581 252 bang;
#X obj 627 272 random 99;
#X obj 581 232 inlet;
#X obj 710 287 * 99;
#X obj 710 312 int;
#X obj 710 263 r scan\$0;
#X obj 581 73 r steps\$0;
#X floatatom 581 93 5 0 0 0 - - - 0;
#X obj 581 112 sel 0 1 2 3 4 5 6 7, f 41;
#X obj 581 536 *;
#X obj 606 536 *;
#X obj 631 536 *;
#X obj 656 536 *;
#X obj 681 536 *;
#X obj 706 536 *;
#X obj 731 536 *;
#X obj 756 536 *;
#X obj 756 556 +;
#X obj 731 556 +;
#X obj 706 556 +;
#X obj 681 556 +;
#X obj 656 556 +;
#X obj 631 556 +;
#X obj 606 556 +;
#X msg 829 132 15;
#X msg 581 132 2;
#X msg 616 132 3;
#X msg 652 132 6;
#X msg 687 132 7;
#X obj 581 152 +;
#X obj 497 230 + 1;
#X msg 723 132 8;
#X msg 758 132 9;
#X msg 794 132 11;
#X obj 581 449 s raw1\$0;
#X obj 581 469 s raw2\$0;
#X obj 641 449 s raw3\$0;
#X obj 641 469 s raw4\$0;
#X obj 701 449 s raw5\$0;
#X obj 701 469 s raw6\$0;
#X obj 761 449 s raw7\$0;
#X obj 761 469 s raw8\$0;
#X obj 795 247 r raw1\$0;
#X obj 855 247 r raw2\$0;
#X obj 915 247 r raw3\$0;
#X obj 975 247 r raw4\$0;
#X obj 1035 247 r raw5\$0;
#X obj 1095 247 r raw6\$0;
#X obj 1155 247 r raw7\$0;
#X obj 1215 247 r raw8\$0;
#X obj 1022 470 s raw16\$0;
#X obj 1022 450 s raw15\$0;
#X obj 955 470 s raw14\$0;
#X obj 955 450 s raw13\$0;
#X obj 888 470 s raw12\$0;
#X obj 888 450 s raw11\$0;
#X obj 821 470 s raw10\$0;
#X obj 821 450 s raw9\$0;
#X obj 581 172 r raw2\$0;
#X obj 641 172 r raw3\$0;
#X obj 701 172 r raw4\$0;
#X obj 761 172 r raw5\$0;
#X obj 821 172 r raw6\$0;
#X obj 881 172 r raw7\$0;
#X obj 941 172 r raw8\$0;
#X obj 1001 172 r raw9\$0;
#X obj 1061 172 r raw10\$0;
#X obj 1128 172 r raw11\$0;
#X obj 1195 172 r raw12\$0;
#X obj 1262 172 r raw13\$0;
#X obj 1329 172 r raw14\$0;
#X obj 1396 172 r raw15\$0;
#X obj 1463 172 r raw16\$0;
#X obj 581 516 r raw1\$0;
#X obj 641 516 r raw2\$0;
#X obj 701 516 r raw3\$0;
#X obj 761 516 r raw4\$0;
#X obj 821 516 r raw5\$0;
#X obj 881 516 r raw6\$0;
#X obj 941 516 r raw7\$0;
#X obj 1001 516 r raw8\$0;
#X obj 581 496 r trim1\$0;
#X obj 648 496 r trim2\$0;
#X obj 715 496 r trim3\$0;
#X obj 782 496 r trim4\$0;
#X obj 849 496 r trim5\$0;
#X obj 916 496 r trim6\$0;
#X obj 983 496 r trim7\$0;
#X obj 1050 496 r trim8\$0;
#X obj 606 576 s volts\$0;
#X obj 563 290 r mode\$0;
#X obj 767 289 r maintrim\$0;
#X obj 491 256 s stepsind\$0;
#X obj 846 331 s tmout\$0;
#X connect 0 0 1 1;
#X connect 0 0 109 0;
#X connect 1 0 2 1;
#X connect 1 0 110 0;
#X connect 2 0 3 1;
#X connect 2 0 111 0;
#X connect 3 0 4 1;
#X connect 3 0 112 0;
#X connect 4 0 5 1;
#X connect 4 0 113 0;
#X connect 5 0 6 1;
#X connect 5 0 114 0;
#X connect 6 0 7 1;
#X connect 6 0 115 0;
#X connect 7 0 8 1;
#X connect 7 0 116 0;
#X connect 8 0 9 1;
#X connect 8 0 132 0;
#X connect 9 0 10 1;
#X connect 9 0 131 0;
#X connect 10 0 11 1;
#X connect 10 0 130 0;
#X connect 11 0 12 1;
#X connect 11 0 129 0;
#X connect 12 0 13 1;
#X connect 12 0 128 0;
#X connect 13 0 14 1;
#X connect 13 0 127 0;
#X connect 14 0 15 1;
#X connect 14 0 126 0;
#X connect 15 0 125 0;
#X connect 16 0 0 0;
#X connect 16 1 1 0;
#X connect 16 2 2 0;
#X connect 16 3 3 0;
#X connect 16 4 4 0;
#X connect 16 5 5 0;
#X connect 16 6 6 0;
#X connect 16 7 7 0;
#X connect 16 8 8 0;
#X connect 16 9 9 0;
#X connect 16 10 10 0;
#X connect 16 11 11 0;
#X connect 16 12 12 0;
#X connect 16 13 13 0;
#X connect 16 14 14 0;
#X connect 16 15 15 0;
#X connect 17 0 58 0;
#X connect 18 0 59 1;
#X connect 19 0 17 1;
#X connect 20 0 17 1;
#X connect 21 0 17 1;
#X connect 22 0 17 1;
#X connect 23 0 17 1;
#X connect 24 0 17 1;
#X connect 25 0 17 1;
#X connect 26 0 17 1;
#X connect 27 0 17 1;
#X connect 28 0 17 1;
#X connect 29 0 17 1;
#X connect 30 0 17 1;
#X connect 31 0 17 1;
#X connect 32 0 17 1;
#X connect 33 0 17 1;
#X connect 34 0 19 1;
#X connect 35 0 20 1;
#X connect 36 0 21 1;
#X connect 37 0 22 1;
#X connect 38 0 23 1;
#X connect 39 0 24 1;
#X connect 40 0 25 1;
#X connect 41 0 26 1;
#X connect 42 0 27 1;
#X connect 43 0 28 1;
#X connect 44 0 29 1;
#X connect 45 0 30 1;
#X connect 46 0 31 1;
#X connect 47 0 32 1;
#X connect 48 0 33 1;
#X connect 49 0 51 0;
#X connect 50 0 51 0;
#X connect 51 0 16 0;
#X connect 52 0 51 0;
#X connect 53 0 50 1;
#X connect 54 0 49 1;
#X connect 55 0 52 1;
#X connect 56 0 50 0;
#X connect 57 0 52 0;
#X connect 58 0 59 0;
#X connect 58 1 76 0;
#X connect 59 0 49 0;
#X connect 60 0 63 1;
#X connect 61 0 63 0;
#X connect 62 0 64 0;
#X connect 63 0 64 1;
#X connect 64 0 65 1;
#X connect 65 0 66 1;
#X connect 66 0 67 1;
#X connect 67 0 68 1;
#X connect 68 0 73 1;
#X connect 69 0 65 0;
#X connect 70 0 66 0;
#X connect 71 0 67 0;
#X connect 72 0 68 0;
#X connect 73 0 74 0;
#X connect 74 0 168 0;
#X connect 75 0 17 0;
#X connect 75 0 57 0;
#X connect 75 0 56 0;
#X connect 76 0 18 0;
#X connect 77 0 75 0;
#X connect 78 0 79 0;
#X connect 79 0 18 1;
#X connect 80 0 78 0;
#X connect 81 0 82 0;
#X connect 82 0 83 0;
#X connect 83 0 100 0;
#X connect 83 1 101 0;
#X connect 83 2 102 0;
#X connect 83 3 103 0;
#X connect 83 4 106 0;
#X connect 83 5 107 0;
#X connect 83 6 108 0;
#X connect 83 7 99 0;
#X connect 84 0 98 0;
#X connect 85 0 97 0;
#X connect 86 0 96 0;
#X connect 87 0 95 0;
#X connect 88 0 94 0;
#X connect 89 0 93 0;
#X connect 90 0 92 0;
#X connect 91 0 92 1;
#X connect 92 0 93 1;
#X connect 93 0 94 1;
#X connect 94 0 95 1;
#X connect 95 0 96 1;
#X connect 96 0 97 1;
#X connect 97 0 98 1;
#X connect 98 0 164 0;
#X connect 99 0 104 0;
#X connect 100 0 104 0;
#X connect 101 0 104 0;
#X connect 102 0 104 0;
#X connect 103 0 104 0;
#X connect 104 0 34 0;
#X connect 104 0 48 0;
#X connect 104 0 47 0;
#X connect 104 0 46 0;
#X connect 104 0 45 0;
#X connect 104 0 44 0;
#X connect 104 0 43 0;
#X connect 104 0 42 0;
#X connect 104 0 41 0;
#X connect 104 0 40 0;
#X connect 104 0 39 0;
#X connect 104 0 38 0;
#X connect 104 0 37 0;
#X connect 104 0 36 0;
#X connect 104 0 35 0;
#X connect 104 0 105 0;
#X connect 105 0 167 0;
#X connect 106 0 104 0;
#X connect 107 0 104 0;
#X connect 108 0 104 0;
#X connect 117 0 73 0;
#X connect 118 0 72 0;
#X connect 119 0 71 0;
#X connect 120 0 70 0;
#X connect 121 0 69 0;
#X connect 122 0 62 0;
#X connect 123 0 61 0;
#X connect 124 0 60 0;
#X connect 133 0 19 0;
#X connect 134 0 20 0;
#X connect 135 0 21 0;
#X connect 136 0 22 0;
#X connect 137 0 23 0;
#X connect 138 0 24 0;
#X connect 139 0 25 0;
#X connect 140 0 26 0;
#X connect 141 0 27 0;
#X connect 142 0 28 0;
#X connect 143 0 29 0;
#X connect 144 0 30 0;
#X connect 145 0 31 0;
#X connect 146 0 32 0;
#X connect 147 0 33 0;
#X connect 148 0 84 0;
#X connect 149 0 85 0;
#X connect 150 0 86 0;
#X connect 151 0 87 0;
#X connect 152 0 88 0;
#X connect 153 0 89 0;
#X connect 154 0 90 0;
#X connect 155 0 91 0;
#X connect 156 0 84 1;
#X connect 157 0 85 1;
#X connect 158 0 86 1;
#X connect 159 0 87 1;
#X connect 160 0 88 1;
#X connect 161 0 89 1;
#X connect 162 0 90 1;
#X connect 163 0 91 1;
#X connect 165 0 53 0;
#X connect 165 0 55 0;
#X connect 165 0 54 0;
#X connect 166 0 74 1;
#X restore 384 151 pd gut;
#X obj 386 125 inlet;
#X obj 100 371 r tmout\$0;
#X obj 451 120 r clock;
#X obj 255 138 tgl 20 0 empty empty empty 0 -10 0 12 #fcfcfc #000000 #000000 0 1;
#X obj 443 150 spigot;
#X connect 12 0 59 0;
#X connect 12 0 15 0;
#X connect 13 0 60 0;
#X connect 13 0 18 0;
#X connect 14 0 20 0;
#X connect 14 1 16 0;
#X connect 15 0 14 0;
#X connect 16 0 22 0;
#X connect 17 0 21 0;
#X connect 17 1 19 0;
#X connect 18 0 17 0;
#X connect 19 0 23 0;
#X connect 20 0 22 0;
#X connect 21 0 23 0;
#X connect 37 0 61 0;
#X connect 37 0 39 0;
#X connect 38 0 41 0;
#X connect 38 1 40 0;
#X connect 39 0 38 0;
#X connect 40 0 42 0;
#X connect 41 0 42 0;
#X connect 44 0 45 0;
#X connect 44 0 46 0;
#X connect 44 0 47 0;
#X connect 44 0 48 0;
#X connect 45 0 1 0;
#X connect 45 0 4 0;
#X connect 46 0 43 0;
#X connect 47 0 0 0;
#X connect 48 0 3 0;
#X connect 52 0 55 0;
#X connect 53 0 49 0;
#X connect 68 0 50 0;
#X connect 69 0 13 0;
#X connect 70 0 13 1;
#X connect 71 0 37 0;
#X connect 72 0 37 1;
#X connect 73 0 12 0;
#X connect 74 0 12 1;
#X connect 75 0 52 0;
#X connect 76 0 4 0;
#X connect 78 0 77 0;
#X connect 79 0 53 0;
#X connect 80 0 82 0;
#X connect 81 0 82 1;
#X connect 82 0 77 0;
#X coords 0 -1 1 1 250 250 2 100 100;
