#N canvas 0 0 749 738 12;
#X obj 226 211 noise~;
#X obj 354 296 noise~;
#X obj 279 469 *~;
#X obj 250 384 clip~ 0 1;
#X obj 444 368 delread4~ ks1;
#X obj 408 479 hip~ 20;
#X obj 260 419 lop~ 40;
#X obj 195 751 delwrite~ ks1 5000;
#X obj 337 345 lop~ 10;
#X obj 431 530 lop~ 8000;
#X obj 434 425 *~ 0.95;
#X obj 917 962 rev3~ 98 96 500 50;
#X obj 216 263 lop~ 500;
#X obj 200 303 expr~ $v1 > 0.2;
#X obj 229 346 hip~ 20;
#X obj 613 315 vsl 20 170 0 1 0 0 empty empty empty 0 -9 0 12 #fcfcfc #000000 #000000 0 1;
#X obj 497 562 *~;
#X msg 604 526 \$1 20;
#X obj 607 550 line~;
#X obj 476 663 lop~ 500;
#X obj 480 592 lop~ 500;
#X obj 453 135 vsl 20 170 0 1000 0 0 empty empty empty 0 -9 0 12 #fcfcfc #000000 #000000 0 1;
#X obj 545 207 vsl 20 170 0 2000 0 0 empty empty empty 0 -9 0 12 #fcfcfc #000000 #000000 0 1;
#X obj 482 623 hip~ 1;
#X obj 633 823 scope;
#X obj 633 673 sineclip;
#X obj 758 496 vsl 20 170 0 1 0 0 empty empty empty 0 -9 0 12 #fcfcfc #000000 #000000 0 1;
#X obj 679 750 *~;
#X msg 749 713 \$1 20;
#X obj 752 737 line~;
#X obj 588 724 *~ 0.2;
#X obj 433 340 sig~ 27;
#X obj 384 716 hip~ 20;
#X obj 941 877 hip~ 50;
#X obj 825 641 noise~;
#X obj 827 729 *~ 0.1;
#X obj 923 537 vsl 20 170 0 1 0 0 empty empty empty 0 -9 0 12 #fcfcfc #000000 #000000 0 1;
#X obj 844 785 *~;
#X msg 914 748 \$1 20;
#X obj 917 772 line~;
#X obj 760 768 noise~;
#X obj 754 807 bp~ 1000 10;
#X obj 762 856 *~ 0.1;
#X obj 779 912 *~;
#X obj 819 680 bp~ 600 10;
#X obj 647 588 lop~ 500;
#X obj 650 614 hip~ 1;
#X obj 657 636 *~ 100;
#X obj 1040 158 noise~;
#X obj 1168 243 noise~;
#X obj 1093 416 *~;
#X obj 1064 331 clip~ 0 1;
#X obj 1222 426 hip~ 20;
#X obj 1074 366 lop~ 40;
#X obj 1151 292 lop~ 10;
#X obj 1245 477 lop~ 8000;
#X obj 1248 372 *~ 0.95;
#X obj 1030 210 lop~ 500;
#X obj 1014 250 expr~ $v1 > 0.2;
#X obj 1043 293 hip~ 20;
#X obj 1427 262 vsl 20 170 0 1 0 0 empty empty empty 0 -9 0 12 #fcfcfc #000000 #000000 0 1;
#X obj 1311 509 *~;
#X msg 1418 473 \$1 20;
#X obj 1421 497 line~;
#X obj 1290 610 lop~ 500;
#X obj 1294 539 lop~ 500;
#X obj 1267 82 vsl 20 170 0 1000 0 0 empty empty empty 0 -9 0 12 #fcfcfc #000000 #000000 0 1;
#X obj 1359 154 vsl 20 170 0 2000 0 0 empty empty empty 0 -9 0 12 #fcfcfc #000000 #000000 0 1;
#X obj 1296 570 hip~ 1;
#X obj 1447 770 scope;
#X obj 1447 620 sineclip;
#X obj 1572 443 vsl 20 170 0 1 0 0 empty empty empty 0 -9 0 12 #fcfcfc #000000 #000000 0 1;
#X obj 1493 697 *~;
#X msg 1563 660 \$1 20;
#X obj 1566 684 line~;
#X obj 1402 671 *~ 0.2;
#X obj 1198 663 hip~ 20;
#X obj 1200 696 hip~ 50;
#X obj 1639 588 noise~;
#X obj 1641 676 *~ 0.1;
#X obj 1737 481 vsl 20 170 0 1 0 0 empty empty empty 0 -9 0 12 #fcfcfc #000000 #000000 0 1;
#X obj 1658 732 *~;
#X msg 1728 695 \$1 20;
#X obj 1731 719 line~;
#X obj 1574 715 noise~;
#X obj 1568 754 bp~ 1000 10;
#X obj 1593 859 *~;
#X obj 1461 535 lop~ 500;
#X obj 1464 561 hip~ 1;
#X obj 1471 583 *~ 100;
#X obj 1258 315 delread4~ ks2;
#X obj 1009 698 delwrite~ ks2 5000;
#X obj 1247 287 sig~ 35;
#X obj 1633 627 bp~ 1200 10;
#X obj 741 70 ctlin 50 1;
#X obj 738 115 / 127;
#X obj 562 115 / 127;
#X obj 571 172 * 1000;
#X obj 565 70 ctlin 51 1;
#X obj 1581 114 / 127;
#X obj 1405 114 / 127;
#X obj 1414 171 * 1000;
#X obj 1584 69 ctlin 54 1;
#X obj 1408 69 ctlin 55 1;
#X obj 1576 803 *~ 0.5;
#X obj 1737 415 / 127;
#X obj 1740 370 ctlin 52 1;
#X obj 854 240 / 127;
#X obj 857 195 ctlin 53 1;
#X obj 932 1031 outlet~, f 8;
#X obj 1012 1029 outlet~, f 8;
#X connect 0 0 12 0;
#X connect 1 0 8 0;
#X connect 2 0 7 0;
#X connect 3 0 6 0;
#X connect 4 0 10 0;
#X connect 5 0 9 0;
#X connect 6 0 2 0;
#X connect 6 0 7 0;
#X connect 8 0 2 1;
#X connect 9 0 7 0;
#X connect 9 0 16 0;
#X connect 9 0 45 0;
#X connect 10 0 5 0;
#X connect 11 0 109 0;
#X connect 11 1 110 0;
#X connect 12 0 13 0;
#X connect 13 0 14 0;
#X connect 14 0 3 0;
#X connect 15 0 17 0;
#X connect 16 0 20 0;
#X connect 17 0 18 0;
#X connect 18 0 16 1;
#X connect 19 0 32 0;
#X connect 20 0 23 0;
#X connect 21 0 12 1;
#X connect 22 0 9 1;
#X connect 23 0 19 0;
#X connect 25 0 24 0;
#X connect 25 0 27 0;
#X connect 26 0 28 0;
#X connect 27 0 30 0;
#X connect 28 0 29 0;
#X connect 29 0 27 1;
#X connect 30 0 19 0;
#X connect 31 0 4 0;
#X connect 32 0 33 0;
#X connect 33 0 11 0;
#X connect 33 0 11 1;
#X connect 33 0 109 0;
#X connect 33 0 110 0;
#X connect 34 0 44 0;
#X connect 35 0 37 0;
#X connect 36 0 38 0;
#X connect 37 0 11 1;
#X connect 38 0 39 0;
#X connect 39 0 37 1;
#X connect 39 0 43 1;
#X connect 40 0 41 0;
#X connect 41 0 42 0;
#X connect 42 0 43 0;
#X connect 43 0 11 0;
#X connect 44 0 35 0;
#X connect 45 0 46 0;
#X connect 46 0 47 0;
#X connect 47 0 25 0;
#X connect 48 0 57 0;
#X connect 49 0 54 0;
#X connect 50 0 91 0;
#X connect 51 0 53 0;
#X connect 52 0 55 0;
#X connect 53 0 50 0;
#X connect 53 0 91 0;
#X connect 54 0 50 1;
#X connect 55 0 61 0;
#X connect 55 0 87 0;
#X connect 55 0 91 0;
#X connect 56 0 52 0;
#X connect 57 0 58 0;
#X connect 58 0 59 0;
#X connect 59 0 51 0;
#X connect 60 0 62 0;
#X connect 61 0 65 0;
#X connect 62 0 63 0;
#X connect 63 0 61 1;
#X connect 64 0 76 0;
#X connect 65 0 68 0;
#X connect 66 0 57 1;
#X connect 67 0 55 1;
#X connect 68 0 64 0;
#X connect 70 0 69 0;
#X connect 70 0 72 0;
#X connect 71 0 73 0;
#X connect 72 0 75 0;
#X connect 73 0 74 0;
#X connect 74 0 72 1;
#X connect 75 0 64 0;
#X connect 76 0 77 0;
#X connect 76 0 33 0;
#X connect 78 0 93 0;
#X connect 79 0 81 0;
#X connect 80 0 82 0;
#X connect 82 0 83 0;
#X connect 83 0 81 1;
#X connect 83 0 86 1;
#X connect 84 0 85 0;
#X connect 85 0 104 0;
#X connect 87 0 88 0;
#X connect 88 0 89 0;
#X connect 89 0 70 0;
#X connect 90 0 56 0;
#X connect 92 0 90 0;
#X connect 93 0 79 0;
#X connect 94 0 95 0;
#X connect 95 0 26 0;
#X connect 96 0 97 0;
#X connect 97 0 21 0;
#X connect 98 0 96 0;
#X connect 99 0 71 0;
#X connect 100 0 101 0;
#X connect 101 0 66 0;
#X connect 102 0 99 0;
#X connect 103 0 100 0;
#X connect 104 0 86 0;
#X connect 105 0 80 0;
#X connect 105 0 36 0;
#X connect 106 0 105 0;
#X connect 107 0 15 0;
#X connect 108 0 107 0;
