#N canvas 0 15 885 723 12;
#X obj 76 101 inlet;
#X obj 55 330 osc~;
#X obj 54 257 mtof;
#X obj 55 378 *~;
#X obj 101 288 / 127;
#X obj 101 344 line~;
#X msg 101 315 \$1 100;
#X obj 73 157 pack 0 0 0;
#X obj 57 230 unpack 0 0;
#X obj 74 130 poly 4 1;
#X obj 72 185 route 1 2 3 4;
#X obj 175 335 osc~;
#X obj 174 281 mtof;
#X obj 175 383 *~;
#X obj 221 293 / 127;
#X obj 221 349 line~;
#X msg 221 320 \$1 100;
#X obj 177 235 unpack 0 0;
#X obj 300 337 osc~;
#X obj 299 277 mtof;
#X obj 300 385 *~;
#X obj 346 295 / 127;
#X obj 346 351 line~;
#X msg 346 322 \$1 100;
#X obj 302 237 unpack 0 0;
#X obj 420 342 osc~;
#X obj 419 282 mtof;
#X obj 420 390 *~;
#X obj 466 300 / 127;
#X obj 466 356 line~;
#X msg 466 327 \$1 100;
#X obj 422 242 unpack 0 0;
#X obj 57 454 outlet~;
#X obj 57 420 /~ 4, f 5;
#X obj 419 310 sig~;
#X obj 300 309 sig~;
#X obj 174 304 sig~;
#X obj 52 296 sig~;
#X connect 0 0 9 0;
#X connect 1 0 3 0;
#X connect 2 0 37 0;
#X connect 3 0 33 0;
#X connect 4 0 6 0;
#X connect 5 0 3 1;
#X connect 6 0 5 0;
#X connect 7 0 10 0;
#X connect 8 0 2 0;
#X connect 8 1 4 0;
#X connect 9 0 7 0;
#X connect 9 1 7 1;
#X connect 9 2 7 2;
#X connect 10 0 8 0;
#X connect 10 1 17 0;
#X connect 10 2 24 0;
#X connect 10 3 31 0;
#X connect 11 0 13 0;
#X connect 12 0 36 0;
#X connect 13 0 33 0;
#X connect 14 0 16 0;
#X connect 15 0 13 1;
#X connect 16 0 15 0;
#X connect 17 0 12 0;
#X connect 17 1 14 0;
#X connect 18 0 20 0;
#X connect 19 0 35 0;
#X connect 20 0 33 0;
#X connect 21 0 23 0;
#X connect 22 0 20 1;
#X connect 23 0 22 0;
#X connect 24 0 19 0;
#X connect 24 1 21 0;
#X connect 25 0 27 0;
#X connect 26 0 34 0;
#X connect 27 0 33 0;
#X connect 28 0 30 0;
#X connect 29 0 27 1;
#X connect 30 0 29 0;
#X connect 31 0 26 0;
#X connect 31 1 28 0;
#X connect 33 0 32 0;
#X connect 34 0 25 0;
#X connect 35 0 18 0;
#X connect 36 0 11 0;
#X connect 37 0 1 0;
