#N canvas 0 0 885 738 12;
#X obj 114 199 +~;
#X obj 223 246 clip~ -1 1;
#X obj 116 281 *~ -1;
#X obj 302 281 *~ -1;
#X obj 224 147 +~ 1;
#X obj 115 174 *~;
#X obj 236 408 clip~ -1 1;
#X obj 129 456 *~ -1;
#X obj 309 438 *~ -1;
#X obj 229 553 clip~ -1 1;
#X obj 125 604 *~ -1;
#X obj 125 669 +~;
#X obj 305 586 *~ -1;
#X obj 227 93 clip~ 0 1;
#X obj 111 249 clip~ -100 -1;
#X obj 304 247 clip~ 1 100;
#X obj 124 411 clip~ -100 -1;
#X obj 317 409 clip~ 1 100;
#X obj 117 556 clip~ -100 -1;
#X obj 310 554 clip~ 1 100;
#X obj 94 55 inlet~;
#X obj 235 56 inlet~;
#X obj 111 777 outlet~;
#X obj 140 739 sineclip;
#X obj 117 330 +~;
#X obj 121 502 +~;
#X obj 525 226 clip~ -1 1;
#X obj 421 277 *~ -1;
#X obj 421 342 +~;
#X obj 601 259 *~ -1;
#X obj 413 229 clip~ -100 -1;
#X obj 606 227 clip~ 1 100;
#X obj 417 175 +~;
#X obj 535 446 clip~ -1 1;
#X obj 431 497 *~ -1;
#X obj 431 562 +~;
#X obj 611 479 *~ -1;
#X obj 423 449 clip~ -100 -1;
#X obj 616 447 clip~ 1 100;
#X obj 427 395 +~;
#X obj 121 705 *~ 1;
#X obj 225 122 *~ 10;
#X connect 0 0 1 0;
#X connect 0 0 14 0;
#X connect 0 0 15 0;
#X connect 1 0 24 0;
#X connect 2 0 24 0;
#X connect 3 0 24 0;
#X connect 4 0 5 1;
#X connect 5 0 0 0;
#X connect 6 0 25 0;
#X connect 7 0 25 0;
#X connect 8 0 25 0;
#X connect 9 0 11 0;
#X connect 10 0 11 0;
#X connect 11 0 32 0;
#X connect 12 0 11 0;
#X connect 13 0 41 0;
#X connect 14 0 2 0;
#X connect 15 0 3 0;
#X connect 16 0 7 0;
#X connect 17 0 8 0;
#X connect 18 0 10 0;
#X connect 19 0 12 0;
#X connect 20 0 5 0;
#X connect 21 0 13 0;
#X connect 23 0 22 0;
#X connect 24 0 6 0;
#X connect 24 0 16 0;
#X connect 24 0 17 0;
#X connect 25 0 9 0;
#X connect 25 0 18 0;
#X connect 25 0 19 0;
#X connect 26 0 28 0;
#X connect 27 0 28 0;
#X connect 28 0 39 0;
#X connect 29 0 28 0;
#X connect 30 0 27 0;
#X connect 31 0 29 0;
#X connect 32 0 26 0;
#X connect 32 0 30 0;
#X connect 32 0 31 0;
#X connect 33 0 35 0;
#X connect 34 0 35 0;
#X connect 35 0 40 0;
#X connect 36 0 35 0;
#X connect 37 0 34 0;
#X connect 38 0 36 0;
#X connect 39 0 33 0;
#X connect 39 0 37 0;
#X connect 39 0 38 0;
#X connect 40 0 23 0;
#X connect 41 0 4 0;
