#N canvas 0 21 749 711 12;
#X obj 52 269 complex-mod~;
#X obj 51 234 hilbert~;
#X obj 153 266 complex-mod~;
#X obj 153 232 hilbert~;
#X obj 51 302 outlet~;
#X obj 155 303 outlet~;
#X obj 51 166 inlet~;
#X obj 156 162 inlet~;
#X obj 249 160 inlet~;
#X connect 0 0 4 0;
#X connect 1 0 0 0;
#X connect 1 1 0 1;
#X connect 2 0 5 0;
#X connect 3 0 2 0;
#X connect 3 1 2 1;
#X connect 6 0 1 0;
#X connect 7 0 3 0;
#X connect 8 0 0 2;
#X connect 8 0 2 2;
