#N canvas 0 0 749 723 12;
#X msg -55 73 clear;
#X obj 484 436 skew~;
#X obj 445 494 *~;
#X obj 1035 269 noise~;
#X obj 1033 381 samphold~;
#X obj 1035 296 +~ 1;
#X obj 1035 328 /~ 2;
#X obj 446 574 +~;
#X obj 462 254 *~ -1;
#X obj 461 285 +~ 1;
#X obj 653 439 skew~;
#X obj 533 492 *~;
#X obj 942 273 noise~;
#X obj 939 380 samphold~;
#X obj 942 300 +~ 1;
#X obj 942 332 /~ 2;
#X obj 526 576 +~;
#X obj 704 409 *~ -1;
#X obj 703 440 +~ 1;
#X obj 534 411 *~ 2.5;
#X obj 445 212 phasor~ -12.5;
#X obj 131 121 vsl 15 70 0 100 0 0 empty empty time 0 -10 0 10 #fcfcfc #000000 #000000 0 1;
#X obj 185 120 vsl 15 70 0.0001 10000 0 0 empty empty scan 0 -9 0 10 #fcfcfc #000000 #000000 0 1;
#X obj 992 269 line~;
#X obj 941 355 *~;
#X obj 1034 356 *~;
#X obj 525 521 lop~ 12000;
#X obj 525 546 lop~ 12000;
#X obj 445 519 lop~ 12000;
#X obj 446 547 lop~ 12000;
#X obj 702 351 sig~;
#X obj 161 121 vsl 15 70 -1 1 0 0 empty empty win 0 -9 0 10 #fcfcfc #000000 #000000 0 1;
#X obj 653 350 wrap~;
#X obj 653 322 +~ 0.5;
#X obj 437 45 noise~;
#X obj 434 125 samphold~;
#X obj 437 69 +~ 1;
#X obj 437 96 /~ 2;
#X obj 440 155 *~ -1;
#X obj 479 185 sig~ -0.1;
#X msg 993 237 \$1 10;
#X obj 666 135 noise~;
#X obj 663 185 samphold~;
#X obj 532 463 *~;
#X obj 585 134 noise~;
#X obj 585 186 samphold~;
#X obj 444 468 *~;
#X obj 104 121 vsl 15 70 1 0 0 1 empty empty dens 0 -10 0 10 #ffffff #000000 #000001 6900 0;
#X obj 717 136 sig~ 0;
#X obj 873 231 * 2;
#X obj 874 257 - 1;
#X obj 665 159 >~;
#X obj 586 158 >~;
#X obj -85 111 delwrite~ loop\$0 12000;
#X obj 358 436 delread4~ loop\$0;
#X obj 531 438 delread4~ loop\$0;
#X obj 444 183 *~;
#X obj 493 99 r~ a\$0;
#X obj 373 253 s~ a\$0;
#X obj 1233 477 skew~;
#X obj 1194 535 *~;
#X obj 1784 310 noise~;
#X obj 1782 422 samphold~;
#X obj 1784 337 +~ 1;
#X obj 1784 369 /~ 2;
#X obj 1195 615 +~;
#X obj 1211 295 *~ -1;
#X obj 1210 326 +~ 1;
#X obj 1402 480 skew~;
#X obj 1282 533 *~;
#X obj 1691 314 noise~;
#X obj 1688 421 samphold~;
#X obj 1691 341 +~ 1;
#X obj 1691 373 /~ 2;
#X obj 1275 617 +~;
#X obj 1453 450 *~ -1;
#X obj 1452 481 +~ 1;
#X obj 1283 452 *~ 2.5;
#X obj 1194 253 phasor~ -12.5;
#X obj 1665 93 vsl 20 170 0 100 0 0 empty empty empty 0 -9 0 12 #fcfcfc #000000 #000000 0 1;
#X obj 1742 97 vsl 20 170 0 1000 0 0 empty empty empty 0 -9 0 12 #fcfcfc #000000 #000000 0 1;
#X obj 1741 310 line~;
#X obj 1690 396 *~;
#X obj 1783 397 *~;
#X obj 1274 562 lop~ 12000;
#X obj 1274 587 lop~ 12000;
#X obj 1194 560 lop~ 12000;
#X obj 1195 588 lop~ 12000;
#X obj 1451 392 sig~;
#X obj 1702 96 vsl 20 170 -1 1 0 0 empty empty empty 0 -9 0 12 #fcfcfc #000000 #000000 0 1;
#X obj 1402 391 wrap~;
#X obj 1402 363 +~ 0.5;
#X obj 1186 86 noise~;
#X obj 1183 166 samphold~;
#X obj 1186 110 +~ 1;
#X obj 1186 137 /~ 2;
#X obj 1189 196 *~ -1;
#X obj 1228 226 sig~ -0.1;
#X msg 1742 278 \$1 10;
#X obj 1415 176 noise~;
#X obj 1412 226 samphold~;
#X obj 1281 504 *~;
#X obj 1334 175 noise~;
#X obj 1334 227 samphold~;
#X obj 1193 509 *~;
#X obj 1622 93 vsl 20 170 1 0 0 1 empty empty 0 -9 0 0 4 #ffffff #000000 #000001 16900 0;
#X obj 1466 177 sig~ 0;
#X obj 1622 272 * 2;
#X obj 1623 298 - 1;
#X obj 1414 200 >~;
#X obj 1335 199 >~;
#X obj 1107 477 delread4~ loop\$0;
#X obj 1280 479 delread4~ loop\$0;
#X obj 1193 224 *~;
#X obj 484 602 +~;
#X obj 546 614 +~;
#X obj 1242 140 r~ b\$0;
#X obj 1122 294 s~ b\$0;
#X obj 376 401 *~ 1.25;
#X obj 1125 442 *~ 1.25;
#X obj 208 173 bng 20 250 50 0 empty empty clear 0 -10 0 12 #fcfcfc #000000 #000000;
#X obj -98 48 inlet~;
#X obj 480 643 outlet~;
#X obj 546 643 outlet~;
#X obj 80 -2 inlet;
#X obj 132 1 inlet;
#X obj 181 2 inlet;
#X obj 233 5 inlet;
#X obj 170 59 * 2;
#X obj 164 86 - 1;
#X obj 122 65 * 100;
#X obj 66 53 * -1;
#X obj 67 77 + 1;
#X obj 235 47 * 10000;
#X obj 226 73 clip 0.0001 10000;
#X obj 173 26 clip 0 1;
#X obj 281 20 clip 0 1;
#X obj 106 32 clip 0 1;
#X obj 37 27 clip 0 1;
#X connect 0 0 53 0;
#X connect 1 0 2 1;
#X connect 2 0 28 0;
#X connect 3 0 5 0;
#X connect 4 0 54 0;
#X connect 5 0 6 0;
#X connect 6 0 25 0;
#X connect 7 0 114 0;
#X connect 8 0 9 0;
#X connect 9 0 4 1;
#X connect 9 0 45 1;
#X connect 10 0 11 1;
#X connect 11 0 26 0;
#X connect 12 0 14 0;
#X connect 13 0 55 0;
#X connect 14 0 15 0;
#X connect 15 0 24 0;
#X connect 16 0 114 1;
#X connect 17 0 18 0;
#X connect 18 0 13 1;
#X connect 18 0 42 1;
#X connect 19 0 55 0;
#X connect 20 0 1 0;
#X connect 20 0 8 0;
#X connect 20 0 33 0;
#X connect 20 0 58 0;
#X connect 20 0 118 0;
#X connect 21 0 56 1;
#X connect 21 0 79 0;
#X connect 22 0 40 0;
#X connect 22 0 80 0;
#X connect 23 0 24 1;
#X connect 23 0 25 1;
#X connect 24 0 13 0;
#X connect 25 0 4 0;
#X connect 26 0 27 0;
#X connect 27 0 16 0;
#X connect 28 0 29 0;
#X connect 29 0 7 0;
#X connect 30 0 10 1;
#X connect 30 0 1 1;
#X connect 31 0 30 0;
#X connect 31 0 89 0;
#X connect 32 0 10 0;
#X connect 32 0 17 0;
#X connect 32 0 19 0;
#X connect 33 0 32 0;
#X connect 34 0 36 0;
#X connect 35 0 38 0;
#X connect 36 0 37 0;
#X connect 37 0 35 0;
#X connect 38 0 56 0;
#X connect 39 0 20 0;
#X connect 40 0 23 0;
#X connect 41 0 51 0;
#X connect 42 0 43 1;
#X connect 43 0 11 0;
#X connect 44 0 52 0;
#X connect 45 0 46 1;
#X connect 46 0 2 0;
#X connect 47 0 49 0;
#X connect 47 0 105 0;
#X connect 48 0 51 1;
#X connect 48 0 52 1;
#X connect 49 0 50 0;
#X connect 50 0 48 0;
#X connect 51 0 42 0;
#X connect 52 0 45 0;
#X connect 54 0 46 0;
#X connect 55 0 43 0;
#X connect 56 0 20 0;
#X connect 57 0 35 1;
#X connect 59 0 60 1;
#X connect 60 0 86 0;
#X connect 61 0 63 0;
#X connect 62 0 111 0;
#X connect 63 0 64 0;
#X connect 64 0 83 0;
#X connect 65 0 115 0;
#X connect 66 0 67 0;
#X connect 67 0 62 1;
#X connect 67 0 103 1;
#X connect 68 0 69 1;
#X connect 69 0 84 0;
#X connect 70 0 72 0;
#X connect 71 0 112 0;
#X connect 72 0 73 0;
#X connect 73 0 82 0;
#X connect 74 0 115 1;
#X connect 75 0 76 0;
#X connect 76 0 71 1;
#X connect 76 0 100 1;
#X connect 77 0 112 0;
#X connect 78 0 59 0;
#X connect 78 0 66 0;
#X connect 78 0 91 0;
#X connect 78 0 117 0;
#X connect 78 0 119 0;
#X connect 79 0 113 1;
#X connect 80 0 98 0;
#X connect 81 0 82 1;
#X connect 81 0 83 1;
#X connect 82 0 71 0;
#X connect 83 0 62 0;
#X connect 84 0 85 0;
#X connect 85 0 74 0;
#X connect 86 0 87 0;
#X connect 87 0 65 0;
#X connect 88 0 68 1;
#X connect 88 0 59 1;
#X connect 89 0 88 0;
#X connect 90 0 68 0;
#X connect 90 0 75 0;
#X connect 90 0 77 0;
#X connect 91 0 90 0;
#X connect 92 0 94 0;
#X connect 93 0 96 0;
#X connect 94 0 95 0;
#X connect 95 0 93 0;
#X connect 96 0 113 0;
#X connect 97 0 78 0;
#X connect 98 0 81 0;
#X connect 99 0 109 0;
#X connect 100 0 101 1;
#X connect 101 0 69 0;
#X connect 102 0 110 0;
#X connect 103 0 104 1;
#X connect 104 0 60 0;
#X connect 105 0 107 0;
#X connect 106 0 109 1;
#X connect 106 0 110 1;
#X connect 107 0 108 0;
#X connect 108 0 106 0;
#X connect 109 0 100 0;
#X connect 110 0 103 0;
#X connect 111 0 104 0;
#X connect 112 0 101 0;
#X connect 113 0 78 0;
#X connect 114 0 122 0;
#X connect 115 0 123 0;
#X connect 116 0 93 1;
#X connect 118 0 54 0;
#X connect 119 0 111 0;
#X connect 120 0 0 0;
#X connect 121 0 53 0;
#X connect 124 0 138 0;
#X connect 125 0 137 0;
#X connect 126 0 135 0;
#X connect 127 0 136 0;
#X connect 128 0 129 0;
#X connect 129 0 31 0;
#X connect 130 0 21 0;
#X connect 131 0 132 0;
#X connect 132 0 47 0;
#X connect 133 0 134 0;
#X connect 134 0 22 0;
#X connect 135 0 128 0;
#X connect 136 0 133 0;
#X connect 137 0 130 0;
#X connect 138 0 131 0;
#X coords 0 -1 1 1 150 100 2 100 100;
