#N canvas 0 0 1090 738 12;
#X obj 320 120 inlet~;
#X obj 464 377 outlet~;
#X obj 541 377 outlet~;
#X obj 612 379 outlet~;
#X obj 682 380 outlet~;
#X obj 455 200 *~;
#X obj 533 200 *~;
#X obj 621 199 *~;
#X obj 688 199 *~;
#X obj 373 121 inlet~;
#X obj 456 243 *~;
#X obj 534 243 *~;
#X obj 622 242 *~;
#X obj 689 242 *~;
#X obj 424 121 inlet~;
#X obj 455 289 *~;
#X obj 533 289 *~;
#X obj 621 288 *~;
#X obj 688 288 *~;
#X obj 476 121 inlet~;
#X obj 456 332 *~;
#X obj 534 332 *~;
#X obj 622 331 *~;
#X obj 689 331 *~;
#X obj 105 105 else/knob 50 0 1 0 0 empty empty #dfdfdf #7c7c7c black 0 0 0 0 1 320 0 0 0;
#X obj 105 155 else/knob 50 0 1 0 0 empty empty #dfdfdf #7c7c7c black 0 0 0 0 1 320 0 0 0;
#X obj 105 205 else/knob 50 0 1 0 0 empty empty #dfdfdf #7c7c7c black 0 0 0 0 1 320 0 0 0;
#X obj 105 255 else/knob 50 0 1 0 0 empty empty #dfdfdf #7c7c7c black 0 0 0 0 1 320 0 0 0;
#X msg 100 433 \$1 10;
#X obj 100 460 line~;
#X msg 99 497 \$1 10;
#X obj 99 524 line~;
#X msg 100 555 \$1 10;
#X obj 100 582 line~;
#X msg 99 619 \$1 10;
#X obj 99 646 line~;
#X obj 155 105 else/knob 50 0 1 0 0 empty empty #dfdfdf #7c7c7c black 0 0 0 0 1 320 0 0 0;
#X obj 155 155 else/knob 50 0 1 0 0 empty empty #dfdfdf #7c7c7c black 0 0 0 0 1 320 0 0 0;
#X obj 155 205 else/knob 50 0 1 0 0 empty empty #dfdfdf #7c7c7c black 0 0 0 0 1 320 0 0 0;
#X obj 155 255 else/knob 50 0 1 0 0 empty empty #dfdfdf #7c7c7c black 0 0 0 0 1 320 0 0 0;
#X msg 150 433 \$1 10;
#X obj 150 460 line~;
#X msg 149 497 \$1 10;
#X obj 149 524 line~;
#X msg 150 555 \$1 10;
#X obj 150 582 line~;
#X msg 149 619 \$1 10;
#X obj 149 646 line~;
#X obj 205 105 else/knob 50 0 1 0 0 empty empty #dfdfdf #7c7c7c black 0 0 0 0 1 320 0 0 0;
#X obj 205 155 else/knob 50 0 1 0 0 empty empty #dfdfdf #7c7c7c black 0 0 0 0 1 320 0 0 0;
#X obj 205 205 else/knob 50 0 1 0 0 empty empty #dfdfdf #7c7c7c black 0 0 0 0 1 320 0 0 0;
#X obj 205 255 else/knob 50 0 1 0 0 empty empty #dfdfdf #7c7c7c black 0 0 0 0 1 320 0 0 0;
#X msg 200 433 \$1 10;
#X obj 200 460 line~;
#X msg 199 497 \$1 10;
#X obj 199 524 line~;
#X msg 200 555 \$1 10;
#X obj 200 582 line~;
#X msg 199 619 \$1 10;
#X obj 199 646 line~;
#X obj 255 105 else/knob 50 0 1 0 0 empty empty #dfdfdf #7c7c7c black 0 0 0 0 1 320 0 0 0;
#X obj 255 155 else/knob 50 0 1 0 0 empty empty #dfdfdf #7c7c7c black 0 0 0 0 1 320 0 0 0;
#X obj 255 205 else/knob 50 0 1 0 0 empty empty #dfdfdf #7c7c7c black 0 0 0 0 1 320 0 0 0;
#X obj 255 255 else/knob 50 0 1 0 0 empty empty #dfdfdf #7c7c7c black 0 0 0 0 1 320 0 0 0;
#X msg 250 433 \$1 10;
#X obj 250 460 line~;
#X msg 249 497 \$1 10;
#X obj 249 524 line~;
#X msg 250 555 \$1 10;
#X obj 250 582 line~;
#X msg 249 619 \$1 10;
#X obj 249 646 line~;
#X obj 538 120 inlet;
#X obj 538 148 unpack 0 0 0 0 0 0 0 0 0 0 0 0 0 0 0 0;
#X connect 0 0 5 0;
#X connect 0 0 6 0;
#X connect 0 0 7 0;
#X connect 0 0 8 0;
#X connect 5 0 1 0;
#X connect 6 0 2 0;
#X connect 7 0 3 0;
#X connect 8 0 4 0;
#X connect 9 0 10 0;
#X connect 9 0 11 0;
#X connect 9 0 12 0;
#X connect 9 0 13 0;
#X connect 10 0 1 0;
#X connect 11 0 2 0;
#X connect 12 0 3 0;
#X connect 13 0 4 0;
#X connect 14 0 15 0;
#X connect 14 0 16 0;
#X connect 14 0 17 0;
#X connect 14 0 18 0;
#X connect 15 0 1 0;
#X connect 16 0 2 0;
#X connect 17 0 3 0;
#X connect 18 0 4 0;
#X connect 19 0 20 0;
#X connect 19 0 21 0;
#X connect 19 0 22 0;
#X connect 19 0 23 0;
#X connect 20 0 1 0;
#X connect 21 0 2 0;
#X connect 22 0 3 0;
#X connect 23 0 4 0;
#X connect 24 0 28 0;
#X connect 25 0 30 0;
#X connect 26 0 32 0;
#X connect 27 0 34 0;
#X connect 28 0 29 0;
#X connect 29 0 5 1;
#X connect 30 0 31 0;
#X connect 31 0 10 1;
#X connect 32 0 33 0;
#X connect 33 0 15 1;
#X connect 34 0 35 0;
#X connect 35 0 20 1;
#X connect 36 0 40 0;
#X connect 37 0 42 0;
#X connect 38 0 44 0;
#X connect 39 0 46 0;
#X connect 40 0 41 0;
#X connect 41 0 6 1;
#X connect 42 0 43 0;
#X connect 43 0 11 1;
#X connect 44 0 45 0;
#X connect 45 0 16 1;
#X connect 46 0 47 0;
#X connect 47 0 21 1;
#X connect 48 0 52 0;
#X connect 49 0 54 0;
#X connect 50 0 56 0;
#X connect 51 0 58 0;
#X connect 52 0 53 0;
#X connect 53 0 7 1;
#X connect 54 0 55 0;
#X connect 55 0 12 1;
#X connect 56 0 57 0;
#X connect 57 0 17 1;
#X connect 58 0 59 0;
#X connect 59 0 22 1;
#X connect 60 0 64 0;
#X connect 61 0 66 0;
#X connect 62 0 68 0;
#X connect 63 0 70 0;
#X connect 64 0 65 0;
#X connect 65 0 8 1;
#X connect 66 0 67 0;
#X connect 67 0 13 1;
#X connect 68 0 69 0;
#X connect 69 0 18 1;
#X connect 70 0 71 0;
#X connect 71 0 23 1;
#X connect 72 0 73 0;
#X connect 73 0 24 0;
#X connect 73 1 36 0;
#X connect 73 2 48 0;
#X connect 73 3 60 0;
#X connect 73 4 25 0;
#X connect 73 5 37 0;
#X connect 73 6 49 0;
#X connect 73 7 61 0;
#X connect 73 8 26 0;
#X connect 73 9 38 0;
#X connect 73 10 50 0;
#X connect 73 11 62 0;
#X connect 73 12 27 0;
#X connect 73 13 39 0;
#X connect 73 14 51 0;
#X connect 73 15 63 0;
#X coords 0 -1 1 1 210 210 2 100 100;
