#N canvas 78 0 1773 1148 12;
#X obj 535 132 expr~ $v1 > 0.5;
#X obj 340 105 *~ -1;
#X obj 238 135 clip~ 0 0.5;
#X obj 339 137 clip~ -1 -0.5;
#X obj 272 188 +~;
#X obj 273 218 +~ 0.5;
#X obj 274 248 *~ 2;
#X obj 151 137 cos~;
#X obj 274 279 *~ 2;
#X obj 274 316 -~ 1;
#X obj 462 136 *~ 2;
#X obj 459 165 -~ 1;
#X obj 534 163 *~ 2;
#X obj 531 192 -~ 1;
#X obj 152 170 outlet~;
#X obj 274 352 outlet~;
#X obj 459 194 outlet~;
#X obj 530 241 outlet~;
#X obj 315 16 inlet~;
#X obj 654 266 *~;
#X obj 720 132 inlet;
#X obj 694 265 *~;
#X obj 740 265 *~;
#X obj 780 264 *~;
#X obj 648 326 outlet~;
#X obj 660 190 == 0;
#X obj 700 190 == 1;
#X obj 742 189 == 2;
#X obj 786 190 == 3;
#X obj 315 51 phasor~;
#X connect 0 0 12 0;
#X connect 1 0 3 0;
#X connect 2 0 4 0;
#X connect 3 0 4 1;
#X connect 4 0 5 0;
#X connect 5 0 6 0;
#X connect 6 0 8 0;
#X connect 7 0 14 0;
#X connect 7 0 19 0;
#X connect 8 0 9 0;
#X connect 9 0 15 0;
#X connect 9 0 21 0;
#X connect 10 0 11 0;
#X connect 11 0 16 0;
#X connect 11 0 22 0;
#X connect 12 0 13 0;
#X connect 13 0 17 0;
#X connect 13 0 23 0;
#X connect 18 0 29 0;
#X connect 19 0 24 0;
#X connect 20 0 25 0;
#X connect 20 0 26 0;
#X connect 20 0 27 0;
#X connect 20 0 28 0;
#X connect 21 0 24 0;
#X connect 22 0 24 0;
#X connect 23 0 24 0;
#X connect 25 0 19 1;
#X connect 26 0 21 1;
#X connect 27 0 22 1;
#X connect 28 0 23 1;
#X connect 29 0 0 0;
#X connect 29 0 1 0;
#X connect 29 0 2 0;
#X connect 29 0 7 0;
#X connect 29 0 10 0;
