#N canvas 0 0 749 736 12;
#X obj 108 145 vsl 20 170 -2 0.5 0 0 empty empty empty 0 -9 0 12 #fcfcfc #000000 #000000 0 1;
#X obj 287 -119 pow~;
#X obj 319 -152 sig~;
#X floatatom 357 -150 5 0 0 0 - - - 0;
#X obj 107 324 bng 20 250 50 0 empty empty empty 0 -10 0 12 #fcfcfc #000000 #000000;
#X msg 156 -249 0;
#X obj 107 347 bng 20 250 50 0 empty empty empty 0 -10 0 12 #fcfcfc #000000 #000000;
#X obj 261 -152 sig~ 10;
#X obj 288 -87 expr~ if($v1 == 0.01 \, 0 \, $v1);
#X obj 154 -6 *~;
#X obj 107 -6 *~;
#X obj 279 149 vu 10 200 empty empty -1 -10 0 12 #ffffff #000000 0 0;
#X obj 296 149 vu 10 200 empty empty -1 -10 0 12 #ffffff #000000 1 0;
#N canvas 329 161 625 417 vu 0;
#X obj 59 129 env~ 1024;
#X obj 161 111 abs~;
#X obj 161 213 snapshot~;
#X obj 161 256 rmstodb;
#X obj 161 21 inlet~;
#X obj 161 288 - 100;
#X obj 59 287 - 100;
#X obj 59 361 outlet;
#X obj 161 361 outlet;
#X text 344 307 Check the help file of env~ and slop~ for more details., f 31;
#X obj 239 89 expr 1000 / $f1;
#X floatatom 239 117 5 0 0 0 - - - 0;
#X obj 161 146 slop~ 0 0 0 0 1e+09;
#X obj 239 18 inlet;
#X floatatom 239 57 5 0 0 0 - - - 0;
#X text 359 89 convert to hz;
#X text 282 118 hz;
#X text 284 57 peak decay time in ms;
#X obj 59 171 t f b;
#X text 345 132 The env~ object is dedicated to RMS analysis. Its output is in dB (0-100 range \, pd style) but needs to be converted to dBFS (and we do that by simply subtracting 100)., f 31;
#X text 345 225 The slop~ object is used here for peak detection. We need to convert the output to dB with rmstodb and also subtract by 100 to convert it to dBFS., f 31;
#X connect 0 0 18 0;
#X connect 1 0 12 0;
#X connect 2 0 3 0;
#X connect 3 0 5 0;
#X connect 4 0 0 0;
#X connect 4 0 1 0;
#X connect 5 0 8 0;
#X connect 6 0 7 0;
#X connect 10 0 11 0;
#X connect 11 0 12 3;
#X connect 12 0 2 0;
#X connect 13 0 14 0;
#X connect 14 0 10 0;
#X connect 18 0 6 0;
#X connect 18 1 2 0;
#X restore 439 390 pd vu;
#X obj 463 327 loadbang;
#X msg 463 352 500;
#X obj 527 329 loadbang;
#X msg 527 354 500;
#N canvas 329 161 625 417 vu 0;
#X obj 59 129 env~ 1024;
#X obj 161 111 abs~;
#X obj 161 213 snapshot~;
#X obj 161 256 rmstodb;
#X obj 161 21 inlet~;
#X obj 161 288 - 100;
#X obj 59 287 - 100;
#X obj 59 361 outlet;
#X obj 161 361 outlet;
#X text 344 307 Check the help file of env~ and slop~ for more details., f 31;
#X obj 239 89 expr 1000 / $f1;
#X floatatom 239 117 5 0 0 0 - - - 0;
#X obj 161 146 slop~ 0 0 0 0 1e+09;
#X obj 239 18 inlet;
#X floatatom 239 57 5 0 0 0 - - - 0;
#X text 359 89 convert to hz;
#X text 282 118 hz;
#X text 284 57 peak decay time in ms;
#X obj 59 171 t f b;
#X text 345 132 The env~ object is dedicated to RMS analysis. Its output is in dB (0-100 range \, pd style) but needs to be converted to dBFS (and we do that by simply subtracting 100)., f 31;
#X text 345 225 The slop~ object is used here for peak detection. We need to convert the output to dB with rmstodb and also subtract by 100 to convert it to dBFS., f 31;
#X connect 0 0 18 0;
#X connect 1 0 12 0;
#X connect 2 0 3 0;
#X connect 3 0 5 0;
#X connect 4 0 0 0;
#X connect 4 0 1 0;
#X connect 5 0 8 0;
#X connect 6 0 7 0;
#X connect 10 0 11 0;
#X connect 11 0 12 3;
#X connect 12 0 2 0;
#X connect 13 0 14 0;
#X connect 14 0 10 0;
#X connect 18 0 6 0;
#X connect 18 1 2 0;
#X restore 489 391 pd vu;
#X obj 288 -60 lop~ 1;
#X obj 150 -217 inlet~;
#X obj 208 -217 inlet~;
#X obj 1036 603 dac~ 1 2;
#X obj 354 109 vsl 40 280 -2 0.5 0 1 empty empty empty 0 -9 0 12 #fcfcfc #000000 #000000 21700 1;
#X obj 1131 358 pow~;
#X obj 1163 325 sig~;
#X floatatom 1201 327 5 0 0 0 - - - 0;
#X obj 1200 268 bng 20 250 50 0 empty empty empty 0 -10 0 12 #fcfcfc #000000 #000000;
#X msg 1247 233 0;
#X obj 1200 291 bng 20 250 50 0 empty empty empty 0 -10 0 12 #fcfcfc #000000 #000000;
#X msg 1242 297 -3;
#X obj 1105 325 sig~ 10;
#X obj 1132 390 expr~ if($v1 == 0.01 \, 0 \, $v1);
#X obj 1112 461 *~;
#X obj 1079 461 *~;
#X obj 1042 566 sineclip;
#X obj 1037 323 +~;
#X obj 1072 324 +~;
#X obj 107 373 tgl 20 0 empty empty empty 0 -10 0 12 #fcfcfc #000000 #000000 0 1;
#X obj 107 35 *~;
#X obj 154 34 *~;
#X msg 209 -2 \$1 20;
#X obj 208 27 line~;
#X obj 132 -123 hip~ 100;
#X obj 207 -125 hip~ 100;
#X obj 131 -82 *~;
#X obj 207 -82 *~;
#X obj 69 -82 *~;
#X obj 101 -82 *~;
#X obj 107 -38 +~;
#X obj 153 -42 +~;
#X obj 107 117 tgl 20 0 empty empty empty 0 -10 0 12 #fcfcfc #000000 #000000 0 1;
#X msg 268 -2 \$1 20;
#X obj 267 27 line~;
#X msg 319 -5 \$1 20;
#X obj 318 24 line~;
#X obj 328 -30 == 0;
#X obj 142 -169 hip~ 100;
#X obj 217 -171 hip~ 100;
#X obj 133 145 vsl 20 170 -2 0.5 0 0 empty empty empty 0 -9 0 12 #fcfcfc #000000 #000000 0 1;
#X obj 722 -124 pow~;
#X obj 754 -157 sig~;
#X floatatom 792 -155 5 0 0 0 - - - 0;
#X obj 133 324 bng 20 250 50 0 empty empty empty 0 -10 0 12 #fcfcfc #000000 #000000;
#X msg 463 -153 0;
#X obj 133 347 bng 20 250 50 0 empty empty empty 0 -10 0 12 #fcfcfc #000000 #000000;
#X obj 696 -157 sig~ 10;
#X obj 723 -92 expr~ if($v1 == 0.01 \, 0 \, $v1);
#X obj 589 -11 *~;
#X obj 542 -11 *~;
#X obj 723 -65 lop~ 1;
#X obj 455 -265 inlet~;
#X obj 611 -275 inlet~;
#X obj 133 373 tgl 20 0 empty empty empty 0 -10 0 12 #fcfcfc #000000 #000000 0 1;
#X obj 542 30 *~;
#X obj 589 29 *~;
#X msg 687 -260 \$1 20;
#X obj 686 -231 line~;
#X obj 567 -128 hip~ 100;
#X obj 642 -130 hip~ 100;
#X obj 566 -87 *~;
#X obj 621 -86 *~;
#X obj 504 -87 *~;
#X obj 536 -87 *~;
#X obj 542 -43 +~;
#X obj 588 -47 +~;
#X obj 133 117 tgl 20 0 empty empty empty 0 -10 0 12 #fcfcfc #000000 #000000 0 1;
#X msg 738 -262 \$1 20;
#X obj 737 -233 line~;
#X msg 535 -248 \$1 20;
#X obj 534 -219 line~;
#X obj 544 -273 == 0;
#X obj 577 -174 hip~ 100;
#X obj 644 -173 hip~ 100;
#X obj 159 145 vsl 20 170 -2 0.5 0 0 empty empty empty 0 -9 0 12 #fcfcfc #000000 #000000 0 1;
#X obj 1151 -129 pow~;
#X obj 1183 -162 sig~;
#X floatatom 1221 -160 5 0 0 0 - - - 0;
#X obj 159 324 bng 20 250 50 0 empty empty empty 0 -10 0 12 #fcfcfc #000000 #000000;
#X msg 1020 -259 0;
#X obj 159 347 bng 20 250 50 0 empty empty empty 0 -10 0 12 #fcfcfc #000000 #000000;
#X obj 1125 -162 sig~ 10;
#X obj 1152 -97 expr~ if($v1 == 0.01 \, 0 \, $v1);
#X obj 1018 -16 *~;
#X obj 971 -16 *~;
#X obj 1152 -70 lop~ 1;
#X obj 1014 -227 inlet~;
#X obj 1072 -227 inlet~;
#X obj 159 373 tgl 20 0 empty empty empty 0 -10 0 12 #fcfcfc #000000 #000000 0 1;
#X obj 971 25 *~;
#X obj 1018 24 *~;
#X msg 1073 -12 \$1 20;
#X obj 1072 17 line~;
#X obj 996 -133 hip~ 100;
#X obj 1071 -135 hip~ 100;
#X obj 995 -92 *~;
#X obj 1071 -92 *~;
#X obj 933 -92 *~;
#X obj 965 -92 *~;
#X obj 971 -48 +~;
#X obj 1017 -52 +~;
#X obj 159 117 tgl 20 0 empty empty empty 0 -10 0 12 #fcfcfc #000000 #000000 0 1;
#X msg 1132 -12 \$1 20;
#X obj 1131 17 line~;
#X msg 1183 -15 \$1 20;
#X obj 1182 14 line~;
#X obj 1192 -40 == 0;
#X obj 1006 -179 hip~ 100;
#X obj 1081 -181 hip~ 100;
#X obj 184 145 vsl 20 170 -2 0.5 0 0 empty empty empty 0 -9 0 12 #fcfcfc #000000 #000000 0 1;
#X obj 1582 -132 pow~;
#X obj 1614 -165 sig~;
#X floatatom 1652 -163 5 0 0 0 - - - 0;
#X obj 184 324 bng 20 250 50 0 empty empty empty 0 -10 0 12 #fcfcfc #000000 #000000;
#X msg 1451 -262 0;
#X obj 184 347 bng 20 250 50 0 empty empty empty 0 -10 0 12 #fcfcfc #000000 #000000;
#X obj 1556 -165 sig~ 10;
#X obj 1583 -100 expr~ if($v1 == 0.01 \, 0 \, $v1);
#X obj 1449 -19 *~;
#X obj 1402 -19 *~;
#X obj 1583 -73 lop~ 1;
#X obj 1445 -230 inlet~;
#X obj 1503 -230 inlet~;
#X obj 184 373 tgl 20 0 empty empty empty 0 -10 0 12 #fcfcfc #000000 #000000 0 1;
#X obj 1402 22 *~;
#X obj 1449 21 *~;
#X msg 1504 -15 \$1 20;
#X obj 1503 14 line~;
#X obj 1427 -136 hip~ 100;
#X obj 1502 -138 hip~ 100;
#X obj 1426 -95 *~;
#X obj 1502 -95 *~;
#X obj 1364 -95 *~;
#X obj 1396 -95 *~;
#X obj 1402 -51 +~;
#X obj 1448 -55 +~;
#X obj 184 117 tgl 20 0 empty empty empty 0 -10 0 12 #fcfcfc #000000 #000000 0 1;
#X msg 1563 -15 \$1 20;
#X obj 1562 14 line~;
#X msg 1614 -18 \$1 20;
#X obj 1613 11 line~;
#X obj 1623 -43 == 0;
#X obj 1437 -182 hip~ 100;
#X obj 1512 -184 hip~ 100;
#X obj 208 145 vsl 20 170 -2 0.5 0 0 empty empty empty 0 -9 0 12 #fcfcfc #000000 #000000 0 1;
#X obj 2009 -133 pow~;
#X obj 2041 -166 sig~;
#X floatatom 2079 -164 5 0 0 0 - - - 0;
#X obj 208 324 bng 20 250 50 0 empty empty empty 0 -10 0 12 #fcfcfc #000000 #000000;
#X msg 1878 -263 0;
#X obj 208 347 bng 20 250 50 0 empty empty empty 0 -10 0 12 #fcfcfc #000000 #000000;
#X obj 1983 -166 sig~ 10;
#X obj 2010 -101 expr~ if($v1 == 0.01 \, 0 \, $v1);
#X obj 1876 -20 *~;
#X obj 1829 -20 *~;
#X obj 2010 -74 lop~ 1;
#X obj 1872 -231 inlet~;
#X obj 1930 -231 inlet~;
#X obj 208 373 tgl 20 0 empty empty empty 0 -10 0 12 #fcfcfc #000000 #000000 0 1;
#X obj 1829 21 *~;
#X obj 1876 20 *~;
#X msg 1931 -16 \$1 20;
#X obj 1930 13 line~;
#X obj 1854 -137 hip~ 100;
#X obj 1929 -139 hip~ 100;
#X obj 1853 -96 *~;
#X obj 1929 -96 *~;
#X obj 1791 -96 *~;
#X obj 1823 -96 *~;
#X obj 1829 -52 +~;
#X obj 1875 -56 +~;
#X obj 208 117 tgl 20 0 empty empty empty 0 -10 0 12 #fcfcfc #000000 #000000 0 1;
#X msg 1990 -16 \$1 20;
#X obj 1989 13 line~;
#X msg 2041 -19 \$1 20;
#X obj 2040 10 line~;
#X obj 2050 -44 == 0;
#X obj 1864 -183 hip~ 100;
#X obj 1939 -185 hip~ 100;
#X obj 234 145 vsl 20 170 -2 0.5 0 0 empty empty empty 0 -9 0 12 #fcfcfc #000000 #000000 0 1;
#X obj 2444 -138 pow~;
#X obj 2476 -171 sig~;
#X floatatom 2514 -169 5 0 0 0 - - - 0;
#X obj 234 324 bng 20 250 50 0 empty empty empty 0 -10 0 12 #fcfcfc #000000 #000000;
#X msg 2313 -268 0;
#X obj 234 347 bng 20 250 50 0 empty empty empty 0 -10 0 12 #fcfcfc #000000 #000000;
#X obj 2418 -171 sig~ 10;
#X obj 2445 -106 expr~ if($v1 == 0.01 \, 0 \, $v1);
#X obj 2311 -25 *~;
#X obj 2264 -25 *~;
#X obj 2445 -79 lop~ 1;
#X obj 2307 -236 inlet~;
#X obj 2365 -236 inlet~;
#X obj 234 373 tgl 20 0 empty empty empty 0 -10 0 12 #fcfcfc #000000 #000000 0 1;
#X obj 2264 16 *~;
#X obj 2311 15 *~;
#X msg 2366 -21 \$1 20;
#X obj 2365 8 line~;
#X obj 2289 -142 hip~ 100;
#X obj 2364 -144 hip~ 100;
#X obj 2288 -101 *~;
#X obj 2364 -101 *~;
#X obj 2226 -101 *~;
#X obj 2258 -101 *~;
#X obj 2264 -57 +~;
#X obj 2310 -61 +~;
#X obj 234 117 tgl 20 0 empty empty empty 0 -10 0 12 #fcfcfc #000000 #000000 0 1;
#X msg 2425 -21 \$1 20;
#X obj 2424 8 line~;
#X msg 2476 -24 \$1 20;
#X obj 2475 5 line~;
#X obj 2485 -49 == 0;
#X obj 2299 -188 hip~ 100;
#X obj 2374 -190 hip~ 100;
#X msg -3 166 0;
#X obj 40 88 loadbang;
#X obj 1131 417 lop~ 10;
#X obj 1146 547 outlet~;
#X obj 1211 548 outlet~;
#X obj 124 555 pack 0 0 0 0 0 0;
#X obj 133 515 t b f;
#X obj 180 515 t b f;
#X obj 232 515 t b f;
#X obj 279 515 t b f;
#X obj 327 514 t b f;
#X obj 122 639 list prepend set;
#X obj 121 725 outlet;
#X obj 127 617 list;
#X listbox 252 631 20 0 0 0 - - - 0;
#X obj 120 680 list trim;
#X obj 15 62 unpack 0 0 0 0 0 0;
#X msg 18 329 -2;
#X obj 122 583 spigot;
#X obj 347 562 delay 10;
#X obj 424 508 loadbang;
#X msg 350 596 1;
#X msg 1022 -288 -2;
#X msg 1453 -291 -2;
#X msg 2315 -297 -2;
#X msg 465 -182 -2;
#X msg 1878 -292 -2;
#X obj 1022 519 *~;
#X obj 1091 514 *~;
#X obj 326 369 tgl 20 0 empty empty empty 0 -10 0 12 #fcfcfc #000000 #000000 0 1;
#X obj 995 478 line~;
#X msg 992 447 \$1 10;
#X obj 52 461 r g1;
#X obj 52 494 r g2;
#X obj 50 530 r g3;
#X obj 49 563 r g4;
#X obj 49 594 r g5;
#X obj 49 627 r g6;
#X obj 1173 491 sineclip;
#X connect 0 0 2 0;
#X connect 0 0 3 0;
#X connect 0 0 239 0;
#X connect 1 0 8 0;
#X connect 2 0 1 1;
#X connect 4 0 5 0;
#X connect 5 0 0 0;
#X connect 6 0 251 0;
#X connect 7 0 1 0;
#X connect 8 0 19 0;
#X connect 9 0 40 0;
#X connect 10 0 39 0;
#X connect 13 0 11 0;
#X connect 13 1 11 1;
#X connect 14 0 15 0;
#X connect 15 0 13 1;
#X connect 16 0 17 0;
#X connect 17 0 18 1;
#X connect 18 0 12 0;
#X connect 18 1 12 1;
#X connect 19 0 9 1;
#X connect 19 0 10 1;
#X connect 20 0 47 0;
#X connect 20 0 57 0;
#X connect 20 1 250 0;
#X connect 21 0 48 0;
#X connect 21 0 58 0;
#X connect 23 0 25 0;
#X connect 23 0 26 0;
#X connect 24 0 32 0;
#X connect 25 0 24 1;
#X connect 27 0 28 0;
#X connect 28 0 23 0;
#X connect 29 0 30 0;
#X connect 30 0 23 0;
#X connect 31 0 24 0;
#X connect 32 0 236 0;
#X connect 33 0 262 0;
#X connect 33 0 272 1;
#X connect 34 0 261 0;
#X connect 34 0 272 0;
#X connect 35 0 22 0;
#X connect 35 1 22 1;
#X connect 36 0 13 0;
#X connect 36 0 34 0;
#X connect 37 0 18 0;
#X connect 37 0 33 0;
#X connect 38 0 41 0;
#X connect 39 0 36 0;
#X connect 40 0 37 0;
#X connect 41 0 42 0;
#X connect 42 0 39 1;
#X connect 42 0 40 1;
#X connect 43 0 45 0;
#X connect 44 0 46 0;
#X connect 45 0 49 1;
#X connect 46 0 50 1;
#X connect 47 0 49 0;
#X connect 48 0 50 0;
#X connect 49 0 10 0;
#X connect 50 0 9 0;
#X connect 51 0 52 0;
#X connect 51 0 56 0;
#X connect 52 0 53 0;
#X connect 53 0 45 1;
#X connect 53 0 46 1;
#X connect 54 0 55 0;
#X connect 55 0 47 1;
#X connect 55 0 48 1;
#X connect 56 0 54 0;
#X connect 57 0 43 0;
#X connect 58 0 44 0;
#X connect 59 0 61 0;
#X connect 59 0 62 0;
#X connect 59 0 240 0;
#X connect 60 0 67 0;
#X connect 61 0 60 1;
#X connect 63 0 64 0;
#X connect 64 0 59 0;
#X connect 65 0 259 0;
#X connect 66 0 60 0;
#X connect 67 0 70 0;
#X connect 68 0 75 0;
#X connect 69 0 74 0;
#X connect 70 0 68 1;
#X connect 70 0 69 1;
#X connect 71 0 82 0;
#X connect 71 0 92 0;
#X connect 72 0 83 0;
#X connect 72 0 93 0;
#X connect 73 0 76 0;
#X connect 74 0 36 0;
#X connect 75 0 37 0;
#X connect 76 0 77 0;
#X connect 77 0 74 1;
#X connect 77 0 75 1;
#X connect 78 0 80 0;
#X connect 79 0 81 0;
#X connect 80 0 84 1;
#X connect 81 0 85 1;
#X connect 82 0 84 0;
#X connect 83 0 85 0;
#X connect 84 0 69 0;
#X connect 85 0 68 0;
#X connect 86 0 87 0;
#X connect 86 0 91 0;
#X connect 87 0 88 0;
#X connect 88 0 80 1;
#X connect 88 0 81 1;
#X connect 89 0 90 0;
#X connect 90 0 82 1;
#X connect 90 0 83 1;
#X connect 91 0 89 0;
#X connect 92 0 78 0;
#X connect 93 0 79 0;
#X connect 94 0 96 0;
#X connect 94 0 97 0;
#X connect 94 0 241 0;
#X connect 95 0 102 0;
#X connect 96 0 95 1;
#X connect 98 0 99 0;
#X connect 99 0 94 0;
#X connect 100 0 256 0;
#X connect 101 0 95 0;
#X connect 102 0 105 0;
#X connect 103 0 110 0;
#X connect 104 0 109 0;
#X connect 105 0 103 1;
#X connect 105 0 104 1;
#X connect 106 0 117 0;
#X connect 106 0 127 0;
#X connect 107 0 118 0;
#X connect 107 0 128 0;
#X connect 108 0 111 0;
#X connect 109 0 36 0;
#X connect 110 0 37 0;
#X connect 111 0 112 0;
#X connect 112 0 109 1;
#X connect 112 0 110 1;
#X connect 113 0 115 0;
#X connect 114 0 116 0;
#X connect 115 0 119 1;
#X connect 116 0 120 1;
#X connect 117 0 119 0;
#X connect 118 0 120 0;
#X connect 119 0 104 0;
#X connect 120 0 103 0;
#X connect 121 0 122 0;
#X connect 121 0 126 0;
#X connect 122 0 123 0;
#X connect 123 0 115 1;
#X connect 123 0 116 1;
#X connect 124 0 125 0;
#X connect 125 0 117 1;
#X connect 125 0 118 1;
#X connect 126 0 124 0;
#X connect 127 0 113 0;
#X connect 128 0 114 0;
#X connect 129 0 131 0;
#X connect 129 0 132 0;
#X connect 129 0 242 0;
#X connect 130 0 137 0;
#X connect 131 0 130 1;
#X connect 133 0 134 0;
#X connect 134 0 129 0;
#X connect 135 0 257 0;
#X connect 136 0 130 0;
#X connect 137 0 140 0;
#X connect 138 0 145 0;
#X connect 139 0 144 0;
#X connect 140 0 138 1;
#X connect 140 0 139 1;
#X connect 141 0 152 0;
#X connect 141 0 162 0;
#X connect 142 0 153 0;
#X connect 142 0 163 0;
#X connect 143 0 146 0;
#X connect 144 0 36 0;
#X connect 145 0 37 0;
#X connect 146 0 147 0;
#X connect 147 0 144 1;
#X connect 147 0 145 1;
#X connect 148 0 150 0;
#X connect 149 0 151 0;
#X connect 150 0 154 1;
#X connect 151 0 155 1;
#X connect 152 0 154 0;
#X connect 153 0 155 0;
#X connect 154 0 139 0;
#X connect 155 0 138 0;
#X connect 156 0 157 0;
#X connect 156 0 161 0;
#X connect 157 0 158 0;
#X connect 158 0 150 1;
#X connect 158 0 151 1;
#X connect 159 0 160 0;
#X connect 160 0 152 1;
#X connect 160 0 153 1;
#X connect 161 0 159 0;
#X connect 162 0 148 0;
#X connect 163 0 149 0;
#X connect 164 0 166 0;
#X connect 164 0 167 0;
#X connect 164 0 243 0;
#X connect 165 0 172 0;
#X connect 166 0 165 1;
#X connect 168 0 169 0;
#X connect 169 0 164 0;
#X connect 170 0 260 0;
#X connect 171 0 165 0;
#X connect 172 0 175 0;
#X connect 173 0 180 0;
#X connect 174 0 179 0;
#X connect 175 0 173 1;
#X connect 175 0 174 1;
#X connect 176 0 187 0;
#X connect 176 0 197 0;
#X connect 177 0 188 0;
#X connect 177 0 198 0;
#X connect 178 0 181 0;
#X connect 179 0 36 0;
#X connect 180 0 37 0;
#X connect 181 0 182 0;
#X connect 182 0 179 1;
#X connect 182 0 180 1;
#X connect 183 0 185 0;
#X connect 184 0 186 0;
#X connect 185 0 189 1;
#X connect 186 0 190 1;
#X connect 187 0 189 0;
#X connect 188 0 190 0;
#X connect 189 0 174 0;
#X connect 190 0 173 0;
#X connect 191 0 192 0;
#X connect 191 0 196 0;
#X connect 192 0 193 0;
#X connect 193 0 185 1;
#X connect 193 0 186 1;
#X connect 194 0 195 0;
#X connect 195 0 187 1;
#X connect 195 0 188 1;
#X connect 196 0 194 0;
#X connect 197 0 183 0;
#X connect 198 0 184 0;
#X connect 199 0 201 0;
#X connect 199 0 202 0;
#X connect 199 0 244 0;
#X connect 200 0 207 0;
#X connect 201 0 200 1;
#X connect 203 0 204 0;
#X connect 204 0 199 0;
#X connect 205 0 258 0;
#X connect 206 0 200 0;
#X connect 207 0 210 0;
#X connect 208 0 215 0;
#X connect 209 0 214 0;
#X connect 210 0 208 1;
#X connect 210 0 209 1;
#X connect 211 0 222 0;
#X connect 211 0 232 0;
#X connect 212 0 223 0;
#X connect 212 0 233 0;
#X connect 213 0 216 0;
#X connect 214 0 36 0;
#X connect 215 0 37 0;
#X connect 216 0 217 0;
#X connect 217 0 214 1;
#X connect 217 0 215 1;
#X connect 218 0 220 0;
#X connect 219 0 221 0;
#X connect 220 0 224 1;
#X connect 221 0 225 1;
#X connect 222 0 224 0;
#X connect 223 0 225 0;
#X connect 224 0 209 0;
#X connect 225 0 208 0;
#X connect 226 0 227 0;
#X connect 226 0 231 0;
#X connect 227 0 228 0;
#X connect 228 0 220 1;
#X connect 228 0 221 1;
#X connect 229 0 230 0;
#X connect 230 0 222 1;
#X connect 230 0 223 1;
#X connect 231 0 229 0;
#X connect 232 0 218 0;
#X connect 233 0 219 0;
#X connect 234 0 51 0;
#X connect 234 0 226 0;
#X connect 234 0 191 0;
#X connect 234 0 156 0;
#X connect 234 0 121 0;
#X connect 234 0 86 0;
#X connect 234 0 38 0;
#X connect 234 0 213 0;
#X connect 234 0 178 0;
#X connect 234 0 143 0;
#X connect 234 0 108 0;
#X connect 234 0 73 0;
#X connect 235 0 234 0;
#X connect 235 0 6 0;
#X connect 235 0 205 0;
#X connect 235 0 170 0;
#X connect 235 0 135 0;
#X connect 235 0 100 0;
#X connect 235 0 65 0;
#X connect 236 0 33 1;
#X connect 236 0 34 1;
#X connect 239 0 248 0;
#X connect 239 0 252 0;
#X connect 240 0 239 0;
#X connect 240 1 239 1;
#X connect 241 0 239 0;
#X connect 241 1 239 2;
#X connect 242 0 239 0;
#X connect 242 1 239 3;
#X connect 243 0 239 0;
#X connect 243 1 239 4;
#X connect 244 0 239 0;
#X connect 244 1 239 5;
#X connect 245 0 249 0;
#X connect 247 0 245 0;
#X connect 249 0 246 0;
#X connect 250 0 0 0;
#X connect 250 1 59 0;
#X connect 250 2 94 0;
#X connect 250 3 129 0;
#X connect 250 4 164 0;
#X connect 250 5 199 0;
#X connect 251 0 0 0;
#X connect 252 0 247 0;
#X connect 253 0 255 0;
#X connect 254 0 253 0;
#X connect 255 0 252 1;
#X connect 256 0 94 0;
#X connect 257 0 129 0;
#X connect 258 0 199 0;
#X connect 259 0 59 0;
#X connect 260 0 164 0;
#X connect 261 0 35 0;
#X connect 262 0 35 1;
#X connect 263 0 265 0;
#X connect 264 0 261 1;
#X connect 264 0 262 1;
#X connect 265 0 264 0;
#X connect 266 0 0 0;
#X connect 267 0 59 0;
#X connect 268 0 94 0;
#X connect 269 0 129 0;
#X connect 270 0 164 0;
#X connect 271 0 199 0;
#X connect 272 0 237 0;
#X connect 272 1 238 0;
#X coords 0 -1 1 1 300 300 1 100 100;
