#N canvas 0 0 749 738 12;
#X obj 305 357 cos~;
#X obj 294 278 phasor~ 40;
#X obj 316 394 *~;
#X obj 382 275 sig~ 1;
#X obj 309 327 pow~;
#X obj 395 167 line~;
#X obj 312 664 *~ 0.5;
#X obj 367 196 lop~ 100;
#X obj 432 307 lop~ 1000;
#X obj 129 113 vsl 20 170 0 8.5 0 0 empty empty empty 0 -9 0 12 #fcfcfc #000000 #000000 0 1;
#X obj 464 182 line~;
#X msg 467 156 \$1 10;
#X obj 292 162 line~;
#X obj 215 271 +~;
#X obj 260 231 *~;
#X obj 287 31 bng 20 250 50 0 empty empty empty 0 -10 0 12 #fcfcfc #000000 #000000;
#X obj 310 569 cos~;
#X obj 309 488 clip~ 0 1;
#X obj 309 433 +~ 1;
#X obj 309 460 /~ 2;
#X obj 310 516 /~ 2;
#X obj 309 544 +~ 0.5;
#X obj 467 215 +~ 0.25;
#X obj 445 281 clip~ 0.25 10;
#X obj 189 191 sig~ 45;
#X msg 356 133 1 \, 0 500;
#X obj 264 191 lop~ 500;
#X obj 301 225 *~ 15;
#X obj 109 113 vsl 20 170 0 100 0 0 empty empty empty 0 -9 0 12 #fcfcfc #000000 #000000 0 1;
#X obj 149 113 vsl 20 170 0 50 0 0 empty empty empty 0 -9 0 12 #fcfcfc #000000 #000000 0 1;
#X msg 279 89 17.4556;
#X msg 600 144 set \$1;
#X msg 253 128 1 \, 0 \$1;
#X obj 310 609 hip~ 30;
#X obj 307 635 hip~ 30;
#X obj 661 308 lop~ 1000;
#X obj 169 113 vsl 20 170 0 8.5 0 0 empty empty empty 0 -9 0 12 #fcfcfc #000000 #000000 0 1;
#X obj 693 183 line~;
#X msg 714 147 \$1 10;
#X obj 696 216 +~ 0.25;
#X obj 674 282 clip~ 0.25 10;
#X obj 363 243 pow~;
#X obj 309 705 outlet~;
#X msg 209 93 0;
#X obj 303 -4 inlet;
#X obj 476 105 * 8.5;
#X obj 478 62 clip 0 1;
#X obj 411 56 clip 0 1;
#X obj 409 99 * 100;
#X obj 559 109 * 8.5;
#X obj 561 66 clip 0 1;
#X obj 518 -9 clip 0 1;
#X obj 516 34 * 50;
#X obj 407 6 inlet;
#X obj 467 4 inlet;
#X obj 520 -36 inlet;
#X obj 593 -4 inlet;
#X connect 0 0 2 0;
#X connect 1 0 4 0;
#X connect 2 0 18 0;
#X connect 3 0 4 1;
#X connect 4 0 0 0;
#X connect 5 0 7 0;
#X connect 6 0 42 0;
#X connect 7 0 41 0;
#X connect 8 0 4 1;
#X connect 9 0 11 0;
#X connect 10 0 22 0;
#X connect 11 0 10 0;
#X connect 12 0 26 0;
#X connect 13 0 1 0;
#X connect 14 0 13 1;
#X connect 15 0 25 0;
#X connect 15 0 30 0;
#X connect 15 0 43 0;
#X connect 16 0 33 0;
#X connect 17 0 20 0;
#X connect 18 0 19 0;
#X connect 19 0 17 0;
#X connect 20 0 21 0;
#X connect 21 0 16 0;
#X connect 22 0 23 0;
#X connect 23 0 8 0;
#X connect 24 0 13 0;
#X connect 24 0 14 0;
#X connect 25 0 5 0;
#X connect 26 0 27 0;
#X connect 27 0 14 1;
#X connect 28 0 27 1;
#X connect 29 0 31 0;
#X connect 30 0 32 0;
#X connect 31 0 30 0;
#X connect 32 0 12 0;
#X connect 33 0 34 0;
#X connect 34 0 6 0;
#X connect 35 0 41 1;
#X connect 36 0 38 0;
#X connect 37 0 39 0;
#X connect 38 0 37 0;
#X connect 39 0 40 0;
#X connect 40 0 35 0;
#X connect 41 0 2 1;
#X connect 43 0 1 1;
#X connect 44 0 15 0;
#X connect 45 0 9 0;
#X connect 46 0 45 0;
#X connect 47 0 48 0;
#X connect 48 0 28 0;
#X connect 49 0 36 0;
#X connect 50 0 49 0;
#X connect 51 0 52 0;
#X connect 52 0 29 0;
#X connect 53 0 47 0;
#X connect 54 0 46 0;
#X connect 55 0 51 0;
#X connect 56 0 50 0;
#X coords 0 -1 1 1 100 200 2 100 100;
