#N canvas 0 15 885 723 12;
#X obj 79 440 cos~;
#X obj 80 389 clip~ 0 1;
#X obj 76 324 *~ -1;
#X obj 78 356 +~ 1;
#X obj 80 416 *~ 0.25;
#X obj 76 189 -~ 0;
#X obj 76 215 abs~;
#X obj 77 243 *~ -1;
#X obj 78 269 +~ 1;
#X obj 78 294 clip~ 0 1;
#X obj 168 437 cos~;
#X obj 169 386 clip~ 0 1;
#X obj 165 321 *~ -1;
#X obj 167 353 +~ 1;
#X obj 169 413 *~ 0.25;
#X obj 165 212 abs~;
#X obj 166 240 *~ -1;
#X obj 167 266 +~ 1;
#X obj 167 291 clip~ 0 1;
#X obj 165 186 -~ 1;
#X obj 234 61 clip~ 0 1;
#X obj 235 13 inlet~;
#X obj 30 140 outlet~;
#X obj 118 137 outlet~;
#X obj 122 530 scope;
#X obj 258 529 scope;
#X obj 232 88 *~ 1;
#X obj 231 115 clip~ 0 1;
#X obj 41 40 inlet~;
#X obj 100 39 inlet~;
#X obj 40 100 *~;
#X obj 108 96 *~;
#X obj 333 66 +~ 1;
#X obj 332 96 /~ 2;
#X connect 0 0 24 0;
#X connect 0 0 30 1;
#X connect 1 0 4 0;
#X connect 2 0 3 0;
#X connect 3 0 1 0;
#X connect 4 0 0 0;
#X connect 5 0 6 0;
#X connect 6 0 7 0;
#X connect 7 0 8 0;
#X connect 8 0 9 0;
#X connect 9 0 2 0;
#X connect 10 0 25 0;
#X connect 10 0 31 1;
#X connect 11 0 14 0;
#X connect 12 0 13 0;
#X connect 13 0 11 0;
#X connect 14 0 10 0;
#X connect 15 0 16 0;
#X connect 16 0 17 0;
#X connect 17 0 18 0;
#X connect 18 0 12 0;
#X connect 19 0 15 0;
#X connect 20 0 26 0;
#X connect 21 0 32 0;
#X connect 26 0 27 0;
#X connect 27 0 5 0;
#X connect 27 0 19 0;
#X connect 28 0 30 0;
#X connect 29 0 31 0;
#X connect 30 0 22 0;
#X connect 31 0 23 0;
#X connect 32 0 33 0;
#X connect 33 0 20 0;
