#N canvas 0 0 749 723 12;
#X obj 133 225 *~;
#X obj 194 185 /~;
#X obj 133 389 cos~;
#X obj 133 356 +~ 0.25;
#X obj 237 357 cos~;
#X obj 237 323 +~ 0.5;
#X obj 238 389 +~ 1;
#X obj 238 419 /~ 2;
#X obj 134 482 *~;
#X obj 239 448 pow~;
#X obj 133 324 *~;
#X obj 181 73 sig~ 1;
#X obj 133 258 fexpr~ if ($x1 > 1 \, 0 \, $x1);
#X obj 210 523 block~ 1;
#X obj 134 523 outlet~;
#X obj 133 37 inlet~;
#X obj 237 75 inlet~;
#X obj 270 127 inlet~;
#X obj 237 284 sig~ 1;
#X text 187 38 fundmental;
#X text 290 74 pulsarete vs rest;
#X text 379 130 frequency multiplier;
#X text 513 189 window width;
#X obj 412 295 /~;
#X obj 401 185 sig~ 1;
#X obj 455 185 inlet~;
#X obj 505 226 sig~ 1;
#X obj 454 227 *~ 20;
#X obj 268 176 -~ 1;
#X obj 204 223 fexpr~ if ($x1 < 0 \, 0 \, $x1);
#X obj 323 129 sig~ 2;
#X obj 411 524 outlet~;
#X obj 294 526 outlet~;
#X text 100 554 sine masking;
#X text 266 549 raw pulse phase;
#X text 409 550 window out;
#X obj 135 185 phasor~;
#X obj 484 407 fexpr~ $x1 > 0.001;
#X obj 502 524 outlet~;
#X text 500 550 done low;
#X obj 45 507 lop~ 10000;
#X obj 42 542 lop~ 10000;
#X obj 52 430 lop~ 10000;
#X obj 49 465 lop~ 10000;
#X obj 46 360 lop~ 10000;
#X obj 43 395 lop~ 10000;
#X obj 53 283 lop~ 10000;
#X obj 50 318 lop~ 10000;
#X connect 0 0 12 0;
#X connect 1 0 0 1;
#X connect 2 0 8 0;
#X connect 3 0 2 0;
#X connect 4 0 6 0;
#X connect 5 0 4 0;
#X connect 6 0 7 0;
#X connect 7 0 9 0;
#X connect 8 0 46 0;
#X connect 9 0 8 1;
#X connect 9 0 31 0;
#X connect 10 0 3 0;
#X connect 11 0 1 0;
#X connect 12 0 5 0;
#X connect 12 0 10 0;
#X connect 12 0 32 0;
#X connect 15 0 36 0;
#X connect 16 0 1 1;
#X connect 17 0 28 0;
#X connect 18 0 10 1;
#X connect 23 0 9 1;
#X connect 24 0 23 0;
#X connect 25 0 27 0;
#X connect 26 0 23 1;
#X connect 27 0 23 1;
#X connect 28 0 29 0;
#X connect 29 0 10 1;
#X connect 30 0 28 0;
#X connect 36 0 0 0;
#X connect 36 0 37 0;
#X connect 37 0 38 0;
#X connect 40 0 41 0;
#X connect 41 0 14 0;
#X connect 42 0 43 0;
#X connect 43 0 40 0;
#X connect 44 0 45 0;
#X connect 45 0 42 0;
#X connect 46 0 47 0;
#X connect 47 0 44 0;
