#N canvas 0 15 749 723 12;
#X obj 260 521 array define scale\$0;
#X obj 242 444 s scale\$0;
#X obj 71 506 int;
#X obj 77 575 +;
#X obj 76 433 t f f;
#X obj 126 516 tabread scale\$0;
#X obj 243 334 loadbang;
#X obj 76 393 inlet;
#X obj 73 604 outlet;
#X obj 70 477 / 12;
#X obj 71 544 * 12;
#X obj 128 484 % 12;
#X msg 244 363 0 0 0 0 0 4 4 4 7 7 9 9 9;
#X connect 2 0 10 0;
#X connect 3 0 8 0;
#X connect 4 0 9 0;
#X connect 4 1 11 0;
#X connect 5 0 3 1;
#X connect 6 0 12 0;
#X connect 7 0 4 0;
#X connect 9 0 2 0;
#X connect 10 0 3 0;
#X connect 11 0 5 0;
#X connect 12 0 1 0;
