#N canvas 0 15 749 723 12;
#X obj 260 521 array define scale\$0;
#X obj 321 486 s scale\$0;
#X msg 323 453 0 0 1 2 3 4 5 6 7 8 9 10 11;
#X obj 128 484 % 12;
#X obj 70 477 / 12;
#X obj 71 506 int;
#X obj 71 544 * 12;
#X obj 77 575 +;
#X obj 76 433 t f f;
#X obj 126 516 tabread scale\$0;
#X obj 322 424 loadbang;
#X obj 76 393 inlet;
#X obj 73 604 outlet;
#X connect 2 0 1 0;
#X connect 3 0 9 0;
#X connect 4 0 5 0;
#X connect 5 0 6 0;
#X connect 6 0 7 0;
#X connect 7 0 12 0;
#X connect 8 0 4 0;
#X connect 8 1 3 0;
#X connect 9 0 7 1;
#X connect 10 0 2 0;
#X connect 11 0 8 0;
