#N canvas 0 28 749 738 12;
#X obj 352 406 / 100;
#X obj 348 368 random 101;
#X obj 354 448 * 2;
#X obj 352 472 - 1;
#X obj 352 499 * 4;
#X obj 361 341 bang;
#X obj 357 589 pack 0 0 0;
#X obj 356 559 line;
#X obj 352 530 pack 0 0;
#X obj 440 407 / 100;
#X obj 436 369 random 101;
#X obj 442 449 * 2;
#X obj 440 473 - 1;
#X obj 440 500 * 4;
#X obj 449 342 bang;
#X obj 444 560 line;
#X obj 440 531 pack 0 0;
#X obj 523 412 / 100;
#X obj 519 374 random 101;
#X obj 525 454 * 2;
#X obj 523 478 - 1;
#X obj 523 505 * 4;
#X obj 532 347 bang;
#X obj 527 565 line;
#X obj 523 536 pack 0 0;
#X obj 632 348 bang;
#X obj 619 375 random 2000;
#X obj 381 313 t b b b b;
#X obj 388 282 bng 20 250 50 0 empty empty empty 0 -10 0 12 #fcfcfc #000000 #000000;
#X obj 356 650 outlet;
#X obj 390 232 inlet;
#X connect 0 0 2 0;
#X connect 1 0 0 0;
#X connect 2 0 3 0;
#X connect 3 0 4 0;
#X connect 4 0 8 0;
#X connect 5 0 1 0;
#X connect 6 0 29 0;
#X connect 7 0 6 0;
#X connect 8 0 7 0;
#X connect 9 0 11 0;
#X connect 10 0 9 0;
#X connect 11 0 12 0;
#X connect 12 0 13 0;
#X connect 13 0 16 0;
#X connect 14 0 10 0;
#X connect 15 0 6 1;
#X connect 16 0 15 0;
#X connect 17 0 19 0;
#X connect 18 0 17 0;
#X connect 19 0 20 0;
#X connect 20 0 21 0;
#X connect 21 0 24 0;
#X connect 22 0 18 0;
#X connect 23 0 6 2;
#X connect 24 0 23 0;
#X connect 25 0 26 0;
#X connect 26 0 24 1;
#X connect 26 0 16 1;
#X connect 26 0 8 1;
#X connect 27 0 5 0;
#X connect 27 1 14 0;
#X connect 27 2 22 0;
#X connect 27 3 25 0;
#X connect 28 0 27 0;
#X connect 30 0 28 0;
