#N canvas 1366 0 561 723 12;
#X obj 379 307 slop~ 1e+09 0 0 0 0, f 34;
#X obj 133 115 vsl 20 170 0 0.99 0 0 empty empty empty 0 -9 0 12 #fcfcfc #000000 #000000 0 1;
#X obj 113 115 vsl 20 170 0 0.99 0 0 empty empty empty 0 -9 0 12 #fcfcfc #000000 #000000 0 1;
#X obj 526 251 pow 5;
#X obj 469 247 pow 5;
#X obj 407 501 samphold~;
#X obj 363 436 expr~ $v1 <= 0.001;
#X obj 514 437 expr~ $v1 >= 0.999;
#X obj 496 471 *~ -1;
#X obj 495 500 +~ 1;
#X obj 657 439 expr~ $v1 == 0;
#X obj 648 467 *~ -1;
#X obj 643 495 +~ 1;
#X obj 253 361 -~ 0.01;
#X obj 253 420 clip~ 0 1;
#X obj 324 267 *~;
#X obj 113 289 tgl 20 0 empty empty empty 0 -10 0 12 #fcfcfc #000000 #000000 0 1;
#X obj 841 296 slop~ 1e+09 0 0 0 0, f 34;
#X obj 173 115 vsl 20 170 0 0.99 0 0 empty empty empty 0 -9 0 12 #fcfcfc #000000 #000000 0 1;
#X obj 153 115 vsl 20 170 0 0.99 0 0 empty empty empty 0 -9 0 12 #fcfcfc #000000 #000000 0 1;
#X obj 988 240 pow 5;
#X obj 931 236 pow 5;
#X obj 869 490 samphold~;
#X obj 825 425 expr~ $v1 <= 0.001;
#X obj 976 426 expr~ $v1 >= 0.999;
#X obj 958 460 *~ -1;
#X obj 957 489 +~ 1;
#X obj 1119 428 expr~ $v1 == 0;
#X obj 1110 456 *~ -1;
#X obj 1105 484 +~ 1;
#X obj 706 322 -~ 0.01;
#X obj 715 409 clip~ 0 1;
#X obj 786 256 *~;
#X obj 153 289 tgl 20 0 empty empty empty 0 -10 0 12 #fcfcfc #000000 #000000 0 1;
#X obj 563 503 pow~ 2;
#X obj 222 491 pow~ 2;
#X obj 222 523 outlet~;
#X obj 564 532 outlet~;
#X obj 289 213 r~ trig-\$0;
#X obj 773 207 r~ trig2-\$0;
#X obj 892 543 s~ trig2-\$0;
#X obj 430 554 s~ trig-\$0;
#X obj 278 638 snapshot~;
#X obj 334 457 loadbang;
#X obj 362 642 snapshot~;
#X obj 197 118 vsl 10 50 -1 1 0 0 empty empty empty 0 -9 0 12 #fcfcfc #000000 #000000 0 1;
#X obj 197 176 vsl 10 50 -1 1 0 0 empty empty empty 0 -9 0 12 #fcfcfc #000000 #000000 0 1;
#X msg 277 539 tempo 60 persec;
#X obj 309 596 metro;
#X msg 345 560 1;
#X obj 291 492 t b b b;
#X obj 418 133 inlet~;
#X obj 486 133 inlet~;
#X obj 198 24 loadbang;
#X obj 544 92 inlet;
#X obj 547 130 clip 0.001 0.99;
#X obj 665 92 inlet;
#X obj 668 130 clip 0.001 0.99;
#X obj 787 91 inlet;
#X obj 790 129 clip 0.001 0.99;
#X obj 908 91 inlet;
#X obj 911 129 clip 0.001 0.99;
#X msg 153 345 1 \, 0 10;
#X obj 64 339 sel 1;
#X obj 150 390 line~;
#X obj 96 454 sel 1;
#X obj 146 512 line~;
#X obj 154 432 expr~ $v1 > 0;
#X obj 506 598 expr~ $v1 > 0;
#X msg 200 57 0.1;
#X obj 293 103 scope;
#X obj 63 518 delay 10;
#X msg 144 483 1 \, 0 50;
#X obj 67 382 delay 50;
#X obj 529 15 random 1000;
#X obj 189 289 bng 20 250 50 0 empty empty empty 0 -10 0 12 #fcfcfc #000000 #000000;
#X obj 627 14 random 1000;
#X obj 764 9 random 1000;
#X obj 862 8 random 1000;
#X obj 540 45 / 5000;
#X obj 638 44 / 5000;
#X obj 775 39 / 5000;
#X obj 873 38 / 5000;
#X obj 974 92 inlet;
#X obj 198 235 tgl 10 0 empty empty empty 0 -10 0 12 #fcfcfc #000000 #000000 0 1;
#X obj 352 513 outlet~;
#X obj 832 546 outlet~;
#X obj 547 657 bang;
#X obj 486 700 sel 1;
#X obj 196 255 tgl 20 0 empty empty empty 0 -10 0 12 #fcfcfc #000000 #000000 0 1;
#X obj 539 700 spigot;
#X obj 446 673 change;
#X obj 322 701 bang;
#X obj 261 744 sel 1;
#X obj 314 744 spigot;
#X obj 221 717 change;
#X obj 239 682 <= 0.02;
#X obj 464 638 <= 0.02;
#X obj 638 538 outlet~;
#X obj 667 621 scope;
#X obj 1013 559 outlet~;
#X obj 1016 686 expr~ $v1 > 0;
#X obj 1041 613 hip~ 10;
#X obj 1048 651 clip~ 0 1;
#X obj 1121 561 outlet~;
#X obj 1124 688 expr~ $v1 > 0;
#X obj 1149 615 hip~ 10;
#X obj 1156 653 clip~ 0 1;
#X connect 0 0 6 0;
#X connect 0 0 7 0;
#X connect 0 0 10 0;
#X connect 0 0 13 0;
#X connect 0 0 85 0;
#X connect 0 0 42 0;
#X connect 1 0 3 0;
#X connect 2 0 4 0;
#X connect 3 0 0 2;
#X connect 4 0 0 4;
#X connect 5 0 41 0;
#X connect 6 0 5 0;
#X connect 7 0 8 0;
#X connect 8 0 9 0;
#X connect 9 0 5 1;
#X connect 10 0 11 0;
#X connect 10 0 99 0;
#X connect 10 0 102 0;
#X connect 11 0 12 0;
#X connect 12 0 5 1;
#X connect 12 0 98 0;
#X connect 13 0 14 0;
#X connect 14 0 35 0;
#X connect 15 0 0 0;
#X connect 16 0 15 1;
#X connect 16 0 63 0;
#X connect 17 0 23 0;
#X connect 17 0 24 0;
#X connect 17 0 27 0;
#X connect 17 0 30 0;
#X connect 17 0 86 0;
#X connect 17 0 44 0;
#X connect 18 0 20 0;
#X connect 19 0 21 0;
#X connect 20 0 17 2;
#X connect 21 0 17 4;
#X connect 22 0 40 0;
#X connect 23 0 22 0;
#X connect 24 0 25 0;
#X connect 25 0 26 0;
#X connect 26 0 22 1;
#X connect 27 0 28 0;
#X connect 27 0 106 0;
#X connect 28 0 29 0;
#X connect 29 0 22 1;
#X connect 30 0 31 0;
#X connect 31 0 34 0;
#X connect 32 0 17 0;
#X connect 33 0 32 1;
#X connect 33 0 65 0;
#X connect 34 0 37 0;
#X connect 35 0 36 0;
#X connect 38 0 15 0;
#X connect 39 0 32 0;
#X connect 42 0 45 0;
#X connect 42 0 97 0;
#X connect 43 0 50 0;
#X connect 44 0 46 0;
#X connect 44 0 96 0;
#X connect 47 0 48 0;
#X connect 48 0 42 0;
#X connect 48 0 44 0;
#X connect 49 0 48 1;
#X connect 50 0 48 0;
#X connect 50 1 49 0;
#X connect 50 2 47 0;
#X connect 51 0 0 0;
#X connect 52 0 17 0;
#X connect 53 0 69 0;
#X connect 54 0 55 0;
#X connect 55 0 2 0;
#X connect 56 0 57 0;
#X connect 57 0 1 0;
#X connect 58 0 59 0;
#X connect 59 0 19 0;
#X connect 60 0 61 0;
#X connect 61 0 18 0;
#X connect 62 0 64 0;
#X connect 63 0 73 0;
#X connect 64 0 67 0;
#X connect 65 0 71 0;
#X connect 66 0 68 0;
#X connect 67 0 5 1;
#X connect 68 0 22 1;
#X connect 69 0 2 0;
#X connect 69 0 1 0;
#X connect 69 0 19 0;
#X connect 69 0 18 0;
#X connect 71 0 72 0;
#X connect 72 0 66 0;
#X connect 73 0 62 0;
#X connect 74 0 79 0;
#X connect 75 0 74 0;
#X connect 75 0 76 0;
#X connect 75 0 77 0;
#X connect 75 0 78 0;
#X connect 76 0 80 0;
#X connect 77 0 81 0;
#X connect 78 0 82 0;
#X connect 79 0 55 0;
#X connect 80 0 57 0;
#X connect 81 0 59 0;
#X connect 82 0 61 0;
#X connect 83 0 75 0;
#X connect 84 0 16 0;
#X connect 84 0 33 0;
#X connect 87 0 90 0;
#X connect 88 0 87 0;
#X connect 89 0 90 1;
#X connect 89 0 94 1;
#X connect 90 0 75 0;
#X connect 91 0 88 0;
#X connect 92 0 94 0;
#X connect 93 0 92 0;
#X connect 94 0 75 0;
#X connect 95 0 93 0;
#X connect 96 0 95 0;
#X connect 97 0 91 0;
#X connect 101 0 100 0;
#X connect 102 0 103 0;
#X connect 103 0 101 0;
#X connect 105 0 104 0;
#X connect 106 0 107 0;
#X connect 107 0 105 0;
#X coords 0 -1 1 1 120 220 2 100 100;
