#N canvas 0 15 749 723 12;
#X obj 336 541 f \$0;
#X msg 171 307 set \$1;
#X obj 336 515 loadbang;
#X obj 133 342 tabplay~;
#X obj 123 119 bng 19 250 50 0 empty empty play 0 -10 0 10 #dfdfdf #000000 #000000;
#X obj 171 254 bng 19 250 50 0 empty empty empty 17 7 0 10 #dfdfdf #000000 #000000;
#N canvas 0 50 450 250 (subpatch) 0;
#X array x-\$0 480000 float 2;
#X coords 0 1 480000 -1 90 40 1 0 0;
#X restore 105 155 graph;
#X obj 148 119 bng 20 250 50 0 empty empty load 0 -10 0 10 #fcfcfc #000000 #000000;
#X obj 5 465 openpanel;
#X msg 6 520 set \$1;
#X msg 6 552 /home/crook/Documents/Pd/tidalsamp/ba/ba.wav;
#X obj 64 499 bang;
#X obj 6 582 list append;
#X obj 6 607 list prepend -resize;
#X obj 6 632 list prepend read;
#X obj 6 659 list trim;
#X obj 6 685 soundfiler;
#X obj 336 569 makefilename x-%d;
#X obj 171 281 symbol x-\$0;
#X obj 171 219 loadbang;
#X obj 131 373 outlet~;
#X floatatom 263 421 5 0 0 0 - - - 0;
#X msg 261 391 0;
#X obj 285 336 loadbang;
#X obj 263 449 > 0;
#X obj 262 190 spigot;
#X obj 174 119 tgl 20 0 empty empty loop 0 -10 0 10 #fcfcfc #000000 #000000 0 1;
#X obj 261 226 spigot;
#X obj 62 522 del 10;
#X obj 100 57 inlet;
#X text 100 118 [b];
#X connect 0 0 17 0;
#X connect 1 0 3 0;
#X connect 2 0 0 0;
#X connect 3 0 20 0;
#X connect 3 1 25 0;
#X connect 4 0 3 0;
#X connect 5 0 18 0;
#X connect 7 0 8 0;
#X connect 8 0 9 0;
#X connect 8 0 11 0;
#X connect 9 0 10 0;
#X connect 10 0 12 0;
#X connect 11 0 28 0;
#X connect 12 0 13 0;
#X connect 13 0 14 0;
#X connect 14 0 15 0;
#X connect 15 0 16 0;
#X connect 16 0 21 0;
#X connect 17 0 12 1;
#X connect 18 0 1 0;
#X connect 19 0 5 0;
#X connect 21 0 24 0;
#X connect 22 0 21 0;
#X connect 23 0 22 0;
#X connect 24 0 27 1;
#X connect 25 0 27 0;
#X connect 26 0 25 1;
#X connect 27 0 4 0;
#X connect 28 0 10 0;
#X connect 29 0 4 0;
#X coords 0 -1 1 1 100 100 2 100 100;
