#N canvas 0 15 749 723 12;
#X obj 300 236 osc~;
#X obj 312 143 line~;
#X obj 245 267 hip~ 1;
#X obj 176 103 bng 20 250 50 0 empty empty empty 0 -10 0 12 #fcfcfc #000000 #000000;
#X obj 245 302 *~;
#X obj 300 211 *~ 120;
#X msg 313 116 1 \, 0 300;
#X obj 299 178 pow~ 2;
#X obj 337 236 lop~ 500;
#X msg 245 115 1 \, 0 10;
#X obj 245 146 line~;
#X msg 352 179 0;
#X obj 245 30 inlet;
#X obj 277 444 outlet~;
#N canvas 0 15 749 723 scope 0;
#N canvas 0 15 749 723 (subpatch) 0;
#X array kick\$0 512 float 0;
#X coords 0 1 511 -1 70 70 1 0 0;
#X restore 100 100 graph;
#X obj 362 239 tabwrite~ kick\$0;
#X obj 322 142 inlet~;
#X obj 384 70 bng 20 250 50 0 empty empty empty 0 -10 0 12 #fcfcfc #000000 #000000;
#X obj 405 153 +;
#X obj 469 133 moses 100;
#X msg 531 163 -1;
#X floatatom 495 225 5 0 0 0 - - - 0;
#X msg 425 118 1;
#X obj 455 88 moses 1;
#X msg 416 66 1;
#X obj 507 253 change;
#X obj 509 284 bng 20 250 50 0 empty empty empty 0 -10 0 12 #fcfcfc #000000 #000000;
#X obj 364 21 inlet;
#X obj 464 169 pipe 15;
#X obj 254 317 block~ 1024;
#X obj 470 54 loadbang;
#X connect 2 0 1 0;
#X connect 3 0 4 0;
#X connect 4 0 9 0;
#X connect 5 0 14 0;
#X connect 5 1 6 0;
#X connect 6 0 7 0;
#X connect 7 0 4 0;
#X connect 7 0 11 0;
#X connect 8 0 4 1;
#X connect 9 1 5 0;
#X connect 10 0 4 0;
#X connect 11 0 12 0;
#X connect 12 0 1 0;
#X connect 13 0 10 0;
#X connect 14 0 7 0;
#X connect 16 0 8 0;
#X coords 0 -1 1 1 70 70 2 100 100;
#X restore 105 126 pd scope;
#X obj 585 44 block~ 64;
#X obj 262 414 *~ 0.5;
#X obj 496 230 osc~;
#X obj 508 137 line~;
#X obj 441 261 hip~ 1;
#X obj 372 97 bng 20 250 50 0 empty empty empty 0 -10 0 12 #fcfcfc #000000 #000000;
#X obj 441 296 *~;
#X obj 496 205 *~ 120;
#X msg 509 110 1 \, 0 300;
#X obj 495 172 pow~ 2;
#X obj 533 230 lop~ 500;
#X msg 441 109 1 \, 0 10;
#X obj 441 140 line~;
#X msg 548 173 0;
#X obj 247 58 tgl 20 0 empty empty empty 0 -10 0 12 #fcfcfc #000000 #000000 0 1;
#X obj 227 82 sel 0 1;
#X obj 249 335 hip~ 10;
#X obj 261 387 sineclip;
#X obj 250 359 *~ 1;
#X connect 0 0 2 0;
#X connect 1 0 7 0;
#X connect 1 0 8 0;
#X connect 2 0 4 0;
#X connect 3 0 6 0;
#X connect 3 0 9 0;
#X connect 3 0 11 0;
#X connect 3 0 14 1;
#X connect 4 0 31 0;
#X connect 5 0 0 0;
#X connect 6 0 1 0;
#X connect 7 0 5 0;
#X connect 8 0 4 1;
#X connect 9 0 10 0;
#X connect 10 0 2 0;
#X connect 11 0 0 1;
#X connect 12 0 29 0;
#X connect 16 0 14 0;
#X connect 16 0 13 0;
#X connect 17 0 19 0;
#X connect 18 0 24 0;
#X connect 18 0 25 0;
#X connect 19 0 21 0;
#X connect 20 0 23 0;
#X connect 20 0 26 0;
#X connect 20 0 28 0;
#X connect 21 0 31 0;
#X connect 22 0 17 0;
#X connect 23 0 18 0;
#X connect 24 0 22 0;
#X connect 25 0 21 1;
#X connect 26 0 27 0;
#X connect 27 0 19 0;
#X connect 28 0 17 1;
#X connect 29 0 30 0;
#X connect 30 0 3 0;
#X connect 30 1 20 0;
#X connect 31 0 33 0;
#X connect 32 0 16 0;
#X connect 33 0 32 0;
#X coords 0 -1 1 1 100 100 2 100 100;
