#N canvas 956 0 408 162 12;
#X obj 244 53 inlet;
#X obj 244 333 outlet~;
#X obj 259 141 line~;
#X obj 258 248 hip~ 1;
#X obj 176 104 bng 20 250 50 0 empty empty empty 0 -10 0 12 #fcfcfc #000000 #000000;
#X obj 257 280 *~;
#X msg 259 112 1 \, 0 50;
#X obj 53 272 block~ 64;
#N canvas 0 0 954 738 scope 1;
#N canvas 0 15 749 723 (subpatch) 0;
#X array blip\$0 512 float 0;
#A color 0;
#A width 1;
#X coords 0 1 511 -1 70 70 1 0 0;
#X restore 100 100 graph;
#X obj 281 13 inlet~;
#X obj 384 70 bng 20 250 50 0 empty empty empty 0 -10 0 12 #fcfcfc #000000 #000000;
#X obj 405 153 +;
#X obj 469 133 moses 100;
#X msg 531 163 -1;
#X floatatom 495 225 5 0 0 0 - - - 0;
#X msg 466 56 1;
#X obj 455 88 moses 1;
#X msg 416 66 1;
#X obj 507 253 change;
#X obj 509 284 bng 20 250 50 0 empty empty empty 0 -10 0 12 #fcfcfc #000000 #000000;
#X obj 364 21 inlet;
#X obj 464 169 pipe 15;
#X obj 254 317 block~ 1024;
#X obj 512 33 loadbang;
#X obj 362 239 tabwrite~ blip\$0;
#X connect 1 0 16 0;
#X connect 2 0 3 0;
#X connect 3 0 8 0;
#X connect 4 0 13 0;
#X connect 4 1 5 0;
#X connect 5 0 6 0;
#X connect 6 0 3 0;
#X connect 6 0 10 0;
#X connect 7 0 3 1;
#X connect 8 1 4 0;
#X connect 9 0 3 0;
#X connect 10 0 11 0;
#X connect 11 0 16 0;
#X connect 12 0 9 0;
#X connect 13 0 6 0;
#X connect 15 0 7 0;
#X coords 0 -1 1 1 70 70 2 100 100;
#X restore 105 124 pd scope;
#X obj 251 304 *~ 0.5;
#X obj 259 219 osc~ 500;
#X obj 177 174 tgl 20 0 empty empty h/l 0 -10 0 12 #fcfcfc #000000 #000000 0 1;
#X obj 325 172 sel 0 1;
#X msg 325 208 500;
#X msg 363 208 1000;
#X connect 0 0 4 0;
#X connect 2 0 5 1;
#X connect 3 0 5 0;
#X connect 4 0 6 0;
#X connect 4 0 8 1;
#X connect 5 0 9 0;
#X connect 6 0 2 0;
#X connect 9 0 1 0;
#X connect 9 0 8 0;
#X connect 10 0 3 0;
#X connect 11 0 12 0;
#X connect 12 0 13 0;
#X connect 12 1 14 0;
#X connect 13 0 10 0;
#X connect 14 0 10 0;
#X coords 0 -1 1 1 100 100 2 100 100;
