#N canvas 0 15 749 723 12;
#X obj 60 227 cos~;
#X obj 59 146 clip~ 0 1;
#X obj 59 91 +~ 1;
#X obj 59 118 /~ 2;
#X obj 60 174 /~ 2;
#X obj 59 202 +~ 0.5;
#X obj 58 59 inlet~;
#X obj 142 227 cos~;
#X obj 141 146 clip~ 0 1;
#X obj 141 91 +~ 1;
#X obj 141 118 /~ 2;
#X obj 142 174 /~ 2;
#X obj 141 202 +~ 0.5;
#X obj 140 59 inlet~;
#X obj 58 273 outlet~;
#X obj 144 275 outlet~;
#X text 240 120 dual sine clipper;
#X connect 0 0 14 0;
#X connect 1 0 4 0;
#X connect 2 0 3 0;
#X connect 3 0 1 0;
#X connect 4 0 5 0;
#X connect 5 0 0 0;
#X connect 6 0 2 0;
#X connect 7 0 15 0;
#X connect 8 0 11 0;
#X connect 9 0 10 0;
#X connect 10 0 8 0;
#X connect 11 0 12 0;
#X connect 12 0 7 0;
#X connect 13 0 9 0;
