#N canvas 0 15 885 723 12;
#X obj 151 324 *~;
#X obj 172 301 +~ 1;
#X obj 225 425 -~ 1;
#X obj 264 427 *~ -1;
#X obj 225 454 /~;
#X obj 225 396 clip~ 1 2;
#X obj 152 497 outlet~;
#X obj 264 258 -~ 1;
#X obj 265 284 abs~;
#X obj 262 317 *~ -1;
#X obj 264 348 +~ 1;
#X obj 212 176 *~ -1;
#X obj 213 200 +~ 1;
#X obj 151 226 *~;
#X obj 211 229 *~;
#X obj 329 288 wrap~;
#X obj 310 319 -~;
#X obj 309 348 clip~ 0 1;
#X obj 164 176 *~ -1;
#X obj 165 200 +~ 1;
#X obj 263 170 inlet~;
#X obj 263 197 +~ 1;
#X obj 151 454 -~;
#X obj 151 143 inlet~;
#X obj 263 224 clip~ 0 2;
#X obj 310 260 *~ 1;
#X connect 0 0 5 0;
#X connect 0 0 22 0;
#X connect 1 0 0 1;
#X connect 2 0 4 0;
#X connect 2 0 22 1;
#X connect 3 0 4 1;
#X connect 4 0 6 0;
#X connect 5 0 2 0;
#X connect 7 0 8 0;
#X connect 8 0 9 0;
#X connect 9 0 10 0;
#X connect 10 0 3 0;
#X connect 10 0 1 0;
#X connect 11 0 12 0;
#X connect 12 0 14 0;
#X connect 13 0 0 0;
#X connect 14 0 0 0;
#X connect 15 0 16 1;
#X connect 16 0 17 0;
#X connect 17 0 14 1;
#X connect 17 0 18 0;
#X connect 18 0 19 0;
#X connect 19 0 13 1;
#X connect 20 0 21 0;
#X connect 21 0 24 0;
#X connect 22 0 6 0;
#X connect 23 0 11 0;
#X connect 23 0 13 0;
#X connect 24 0 7 0;
#X connect 24 0 25 0;
#X connect 25 0 16 0;
#X connect 25 0 15 0;
