#N canvas 0 15 749 723 12;
#X listbox 106 131 36 0 0 0 - - - 0;
#X obj 156 175 bng 25 100 50 0 empty empty RECORDING 30 15 1 20 #000000 #ff0400 #000000;
#X obj 177 361 spigot;
#X obj 106 150 tgl 50 0 empty empty empty 0 -10 0 12 #fcfcfc #ff0400 #000000 0 1;
#X obj 202 261 loadbang;
#X msg 201 287 1;
#X listbox 37 419 20 0 0 0 - - - 0;
#X obj 370 364 writesf~ 2;
#X obj 37 394 makefilename %s.WAV;
#X obj 37 443 list prepend open -bytes 4;
#X listbox 37 467 36 0 0 0 - - - 0;
#X obj 37 490 list trim;
#X obj 359 261 inlet~;
#X obj 419 262 inlet~;
#X obj 103 291 sel 1 0;
#X msg 38 342 start;
#X msg 130 345 stop;
#X obj 156 150 bng 25 100 50 0 empty empty READY 30 15 1 20 #000000 #00ff04 #000000;
#X msg 283 290 1;
#X obj 281 314 metro 500;
#X msg 91 343 0;
#X obj 38 535 bang;
#X msg 39 563 1;
#X obj 270 353 spigot;
#X obj 199 311 metro 250;
#X msg 674 179 1;
#X obj 674 204 +;
#X floatatom 711 205 5 0 0 0 - - - 0;
#X msg 711 178 -1;
#X obj 674 99 tgl 19 0 empty empty empty 0 -10 0 12 #fcfcfc #000000 #000000 0 1;
#X obj 711 125 sel 0;
#X floatatom 674 235 5 0 0 0 - - - 0;
#X obj 674 151 metro 10;
#X obj 674 263 % 100;
#X floatatom 228 109 5 0 0 0 - - - 0;
#X obj 632 264 / 100;
#X obj 632 288 int;
#X floatatom 187 109 5 0 0 0 - - - 0;
#X obj 593 338 int;
#X floatatom 593 363 5 0 0 0 - - - 0;
#X obj 593 313 / 60;
#X obj 593 414 int;
#X floatatom 106 109 5 0 0 0 - - - 0;
#X obj 593 389 / 60;
#X obj 632 313 % 60;
#X obj 557 362 % 60;
#X floatatom 147 109 5 0 0 0 - - - 0;
#X obj 384 115 vu 8 80 empty empty -1 -10 0 12 #404040 #000000 0 0;
#X obj 373 115 vu 8 80 empty empty -1 -10 0 12 #404040 #000000 0 0;
#N canvas 329 161 625 417 vu 0;
#X obj 59 129 env~ 1024;
#X obj 161 111 abs~;
#X obj 161 213 snapshot~;
#X obj 161 256 rmstodb;
#X obj 161 21 inlet~;
#X obj 161 288 - 100;
#X obj 59 287 - 100;
#X obj 59 361 outlet;
#X obj 161 361 outlet;
#X text 344 307 Check the help file of env~ and slop~ for more details., f 31;
#X obj 239 89 expr 1000 / $f1;
#X floatatom 239 117 5 0 0 0 - - - 0;
#X obj 161 146 slop~ 0 0 0 0 1e+09;
#X obj 239 18 inlet;
#X floatatom 239 57 5 0 0 0 - - - 0;
#X text 359 89 convert to hz;
#X text 282 118 hz;
#X text 284 57 peak decay time in ms;
#X obj 59 171 t f b;
#X text 345 132 The env~ object is dedicated to RMS analysis. Its output is in dB (0-100 range \, pd style) but needs to be converted to dBFS (and we do that by simply subtracting 100)., f 31;
#X text 345 225 The slop~ object is used here for peak detection. We need to convert the output to dB with rmstodb and also subtract by 100 to convert it to dBFS., f 31;
#X connect 0 0 18 0;
#X connect 1 0 12 0;
#X connect 2 0 3 0;
#X connect 3 0 5 0;
#X connect 4 0 0 0;
#X connect 4 0 1 0;
#X connect 5 0 8 0;
#X connect 6 0 7 0;
#X connect 10 0 11 0;
#X connect 11 0 12 3;
#X connect 12 0 2 0;
#X connect 13 0 14 0;
#X connect 14 0 10 0;
#X connect 18 0 6 0;
#X connect 18 1 2 0;
#X restore 452 363 pd vu;
#N canvas 329 161 625 417 vu 0;
#X obj 59 129 env~ 1024;
#X obj 161 111 abs~;
#X obj 161 213 snapshot~;
#X obj 161 256 rmstodb;
#X obj 161 21 inlet~;
#X obj 161 288 - 100;
#X obj 59 287 - 100;
#X obj 59 361 outlet;
#X obj 161 361 outlet;
#X text 344 307 Check the help file of env~ and slop~ for more details., f 31;
#X obj 239 89 expr 1000 / $f1;
#X floatatom 239 117 5 0 0 0 - - - 0;
#X obj 161 146 slop~ 0 0 0 0 1e+09;
#X obj 239 18 inlet;
#X floatatom 239 57 5 0 0 0 - - - 0;
#X text 359 89 convert to hz;
#X text 282 118 hz;
#X text 284 57 peak decay time in ms;
#X obj 59 171 t f b;
#X text 345 132 The env~ object is dedicated to RMS analysis. Its output is in dB (0-100 range \, pd style) but needs to be converted to dBFS (and we do that by simply subtracting 100)., f 31;
#X text 345 225 The slop~ object is used here for peak detection. We need to convert the output to dB with rmstodb and also subtract by 100 to convert it to dBFS., f 31;
#X connect 0 0 18 0;
#X connect 1 0 12 0;
#X connect 2 0 3 0;
#X connect 3 0 5 0;
#X connect 4 0 0 0;
#X connect 4 0 1 0;
#X connect 5 0 8 0;
#X connect 6 0 7 0;
#X connect 10 0 11 0;
#X connect 11 0 12 3;
#X connect 12 0 2 0;
#X connect 13 0 14 0;
#X connect 14 0 10 0;
#X connect 18 0 6 0;
#X connect 18 1 2 0;
#X restore 501 364 pd vu;
#X obj 471 263 loadbang;
#X msg 487 287 500;
#X obj 301 13 loadbang;
#X obj 206 596 outlet~;
#X obj 292 595 outlet~;
#X msg 253 44 set (type your filename and press ENTER);
#X connect 0 0 8 0;
#X connect 2 0 1 0;
#X connect 3 0 2 1;
#X connect 3 0 14 0;
#X connect 3 0 29 0;
#X connect 4 0 5 0;
#X connect 4 0 18 0;
#X connect 5 0 24 0;
#X connect 6 0 9 0;
#X connect 8 0 6 0;
#X connect 9 0 10 0;
#X connect 10 0 11 0;
#X connect 11 0 7 0;
#X connect 11 0 21 0;
#X connect 12 0 7 0;
#X connect 12 0 49 0;
#X connect 12 0 54 0;
#X connect 13 0 7 1;
#X connect 13 0 50 0;
#X connect 13 0 55 0;
#X connect 14 0 15 0;
#X connect 14 0 20 0;
#X connect 14 1 16 0;
#X connect 15 0 7 0;
#X connect 16 0 7 0;
#X connect 18 0 19 0;
#X connect 19 0 23 0;
#X connect 20 0 23 1;
#X connect 21 0 22 0;
#X connect 22 0 23 1;
#X connect 23 0 17 0;
#X connect 24 0 2 0;
#X connect 25 0 26 0;
#X connect 26 0 27 0;
#X connect 26 0 31 0;
#X connect 27 0 26 1;
#X connect 28 0 27 0;
#X connect 29 0 30 0;
#X connect 29 0 32 0;
#X connect 30 0 28 0;
#X connect 31 0 33 0;
#X connect 31 0 35 0;
#X connect 32 0 25 0;
#X connect 33 0 34 0;
#X connect 35 0 36 0;
#X connect 36 0 44 0;
#X connect 36 0 40 0;
#X connect 38 0 39 0;
#X connect 38 0 45 0;
#X connect 39 0 43 0;
#X connect 40 0 38 0;
#X connect 41 0 42 0;
#X connect 43 0 41 0;
#X connect 44 0 37 0;
#X connect 45 0 46 0;
#X connect 49 0 48 0;
#X connect 49 1 48 1;
#X connect 50 0 47 0;
#X connect 50 1 47 1;
#X connect 51 0 52 0;
#X connect 52 0 49 1;
#X connect 52 0 50 1;
#X connect 53 0 56 0;
#X connect 56 0 0 0;
#X coords 0 -1 1 1 300 110 2 100 100;
