#N canvas 0 0 749 738 12;
#X obj 178 294 zerocross;
#X obj 261 269 line~;
#X msg 257 245 \$1 10;
#X obj 222 514 +~;
#X obj 241 477 +~;
#X obj 246 371 lop~;
#X obj 225 425 -~;
#X obj 231 453 *~ -1;
#X obj 310 476 +~;
#X obj 315 370 lop~;
#X obj 294 424 -~;
#X obj 300 452 *~ -1;
#X obj 263 583 rev3~, f 12;
#X obj 263 542 *~;
#X msg 302 536 98;
#X msg 353 536 50;
#X obj 362 295 zerocross;
#X obj 445 270 line~;
#X obj 406 515 +~;
#X obj 425 478 +~;
#X obj 430 372 lop~;
#X obj 409 426 -~;
#X obj 415 454 *~ -1;
#X obj 494 477 +~;
#X obj 499 371 lop~;
#X obj 478 425 -~;
#X obj 484 453 *~ -1;
#X obj 447 543 *~;
#X obj 161 104 inlet~;
#X obj 253 102 inlet~;
#X obj 338 101 inlet;
#X obj 318 147 clip 0 1;
#X obj 221 658 *~ 1;
#X obj 401 658 *~ 1;
#X obj 220 699 outlet~;
#X obj 352 457 loadbang;
#X msg 341 508 3000;
#X obj 405 698 outlet~;
#X obj 463 300 *~ 600;
#X obj 279 298 *~ 600;
#X obj 323 609 lop~ 5000;
#X obj 253 606 lop~ 5000;
#X connect 0 0 3 0;
#X connect 0 1 5 0;
#X connect 0 1 6 0;
#X connect 1 0 0 1;
#X connect 1 0 13 1;
#X connect 1 0 39 0;
#X connect 2 0 1 0;
#X connect 2 0 17 0;
#X connect 3 0 32 0;
#X connect 4 0 10 0;
#X connect 4 0 9 0;
#X connect 5 0 6 1;
#X connect 6 0 7 0;
#X connect 7 0 4 0;
#X connect 8 0 3 1;
#X connect 8 0 13 0;
#X connect 9 0 10 1;
#X connect 10 0 11 0;
#X connect 11 0 8 0;
#X connect 12 0 41 0;
#X connect 12 1 40 0;
#X connect 13 0 12 0;
#X connect 14 0 12 2;
#X connect 14 0 12 3;
#X connect 15 0 12 5;
#X connect 16 0 18 0;
#X connect 16 1 20 0;
#X connect 16 1 21 0;
#X connect 17 0 16 1;
#X connect 17 0 27 1;
#X connect 17 0 38 0;
#X connect 18 0 33 0;
#X connect 19 0 25 0;
#X connect 19 0 24 0;
#X connect 20 0 21 1;
#X connect 21 0 22 0;
#X connect 22 0 19 0;
#X connect 23 0 18 1;
#X connect 23 0 27 0;
#X connect 24 0 25 1;
#X connect 25 0 26 0;
#X connect 26 0 23 0;
#X connect 27 0 12 1;
#X connect 28 0 0 0;
#X connect 29 0 16 0;
#X connect 30 0 31 0;
#X connect 31 0 2 0;
#X connect 32 0 34 0;
#X connect 33 0 37 0;
#X connect 35 0 14 0;
#X connect 35 0 15 0;
#X connect 35 0 36 0;
#X connect 36 0 12 4;
#X connect 38 0 20 1;
#X connect 38 0 24 1;
#X connect 39 0 5 1;
#X connect 39 0 9 1;
#X connect 40 0 33 0;
#X connect 41 0 32 0;
